# Blender v2.90.0 OBJ File: 'FoodCourtFurnitures.blend'
# www.blender.org
mtllib FoodCourtBenchShort_Col.mtl
o FoodCourtBenchShort_Col
v 0.174665 -0.463380 0.000000
v 0.174665 -0.463380 0.430199
v -0.174665 -0.463380 0.000000
v -0.174665 -0.463380 0.430199
v 0.174665 0.463380 0.000000
v 0.174665 0.463380 0.430199
v -0.174665 0.463380 0.000000
v -0.174665 0.463380 0.430199
vt 0.786002 0.968524
vt 0.765949 0.968524
vt 0.765950 0.689944
vt 0.786003 0.689944
vt 0.765950 0.669891
vt 0.026888 0.689942
vt 0.026888 0.669891
vt 0.006835 0.689942
vt 0.026887 0.968522
vt 0.006834 0.968522
vt 0.026887 0.988575
vt 0.765949 0.988575
vt 0.745892 0.651636
vt 0.006832 0.651637
vt 0.006832 0.373058
vt 0.745892 0.373058
vn 0.0000 -1.0000 0.0000
vn -1.0000 0.0000 0.0000
vn 0.0000 1.0000 0.0000
vn 1.0000 0.0000 0.0000
vn 0.0000 0.0000 -1.0000
vn 0.0000 0.0000 1.0000
usemtl None
s off
f 1/1/1 2/2/1 4/3/1 3/4/1
f 3/5/2 4/3/2 8/6/2 7/7/2
f 7/8/3 8/6/3 6/9/3 5/10/3
f 5/11/4 6/9/4 2/2/4 1/12/4
f 3/13/5 7/14/5 5/15/5 1/16/5
f 8/6/6 4/3/6 2/2/6 6/9/6
