# Blender v2.90.0 OBJ File: 'FoodCourtFurnitures.blend'
# www.blender.org
mtllib FoodCourtBenchShort.mtl
o FoodCourtBenchShort
v 0.120227 -0.388125 0.405763
v -0.120227 -0.388125 0.405763
v -0.120227 -0.388126 0.000000
v 0.120227 -0.388126 0.000000
v 0.103663 -0.388125 0.405763
v -0.103663 -0.388125 0.405763
v -0.103663 -0.388125 0.027407
v 0.103663 -0.388125 0.027407
v 0.120227 -0.413125 0.405763
v -0.120227 -0.413125 0.405763
v -0.120227 -0.413125 0.000000
v 0.120227 -0.413125 0.000000
v 0.103663 -0.413125 0.405763
v -0.103663 -0.413125 0.405763
v -0.103663 -0.413125 0.027407
v 0.103663 -0.413125 0.027407
v -0.108782 -0.411545 0.291888
v 0.108782 -0.411545 0.291888
v -0.108782 -0.395653 0.291888
v 0.108782 -0.395653 0.291888
v -0.108782 -0.411545 0.266573
v 0.108782 -0.411545 0.266573
v -0.108782 -0.395653 0.266573
v 0.108782 -0.395653 0.266573
v 0.120227 0.388125 0.405763
v -0.120227 0.388125 0.405763
v -0.120227 0.388126 0.000000
v 0.120227 0.388126 0.000000
v 0.103663 0.388125 0.405763
v -0.103663 0.388125 0.405763
v -0.103663 0.388125 0.027407
v 0.103663 0.388125 0.027407
v 0.120227 0.413125 0.405763
v -0.120227 0.413125 0.405763
v -0.120227 0.413125 0.000000
v 0.120227 0.413125 0.000000
v 0.103663 0.413125 0.405763
v -0.103663 0.413125 0.405763
v -0.103663 0.413125 0.027407
v 0.103663 0.413125 0.027407
v -0.108782 0.411545 0.291888
v 0.108782 0.411545 0.291888
v -0.108782 0.395653 0.291888
v 0.108782 0.395653 0.291888
v -0.108782 0.411545 0.266573
v 0.108782 0.411545 0.266573
v -0.108782 0.395653 0.266573
v 0.108782 0.395653 0.266573
v 0.174665 -0.463380 0.405053
v 0.174665 -0.463380 0.430199
v -0.174665 -0.463380 0.405053
v -0.174665 -0.463380 0.430199
v 0.174665 0.463380 0.405053
v 0.174665 0.463380 0.430199
v -0.174665 0.463380 0.405053
v -0.174665 0.463380 0.430199
v 0.011689 -0.396483 0.291260
v -0.011689 -0.396483 0.291260
v 0.011689 0.413125 0.291260
v -0.011689 0.413125 0.291260
v 0.011689 -0.396483 0.267819
v -0.011689 -0.396483 0.267819
v 0.011689 0.413125 0.267819
v -0.011689 0.413125 0.267819
vt 0.796216 0.615709
vt 0.796216 0.353954
vt 0.806901 0.371634
vt 0.806901 0.615709
vt 0.951324 0.353954
vt 0.951325 0.615707
vt 0.940639 0.615707
vt 0.940639 0.371634
vt 0.576813 0.318184
vt 0.572853 0.331820
vt 0.260376 0.216634
vt 0.255511 0.197382
vt 0.128331 0.218203
vt 0.133146 0.231877
vt 0.022995 0.344520
vt 0.018302 0.339905
vt 0.123354 0.207940
vt 0.257973 0.180750
vt 0.010600 0.332958
vt 0.584043 0.298093
vt 0.257253 0.234479
vt 0.137595 0.242918
vt 0.030177 0.351618
vt 0.566325 0.352542
vt 0.033416 0.138613
vt 0.033416 0.278958
vt 0.023164 0.278958
vt 0.023164 0.138613
vt 0.234976 0.354804
vt 0.234976 0.344553
vt 0.375321 0.344553
vt 0.375321 0.354804
vt 0.006834 0.278958
vt 0.006834 0.138613
vt 0.111779 0.303890
vt 0.252124 0.303890
vt 0.252124 0.320220
vt 0.111779 0.320220
vt 0.764279 0.389887
vt 0.774965 0.389887
vt 0.774965 0.633963
vt 0.764279 0.651642
vt 0.919389 0.651642
vt 0.908704 0.633963
vt 0.908705 0.389895
vt 0.919390 0.389895
vt 0.862670 0.133369
vt 0.794834 0.248128
vt 0.788875 0.238124
vt 0.858175 0.130475
vt 0.698111 0.289948
vt 0.333813 0.162748
vt 0.339571 0.147807
vt 0.689160 0.270467
vt 0.697332 0.306578
vt 0.800852 0.255551
vt 0.324706 0.185065
vt 0.869935 0.137625
vt 0.783740 0.230146
vt 0.691481 0.253020
vt 0.348023 0.125113
vt 0.851294 0.126011
vt 0.192806 0.147747
vt 0.192806 0.157998
vt 0.052461 0.157998
vt 0.052461 0.147747
vt 0.279508 0.285641
vt 0.139162 0.285641
vt 0.139162 0.275390
vt 0.279508 0.275390
vt 0.192806 0.174328
vt 0.052461 0.174329
vt 0.215624 0.338469
vt 0.215624 0.354799
vt 0.075279 0.354799
vt 0.075279 0.338469
vt 0.786002 0.968524
vt 0.765949 0.968524
vt 0.765950 0.689944
vt 0.786003 0.689944
vt 0.765950 0.669891
vt 0.026888 0.689942
vt 0.026888 0.669891
vt 0.006835 0.689942
vt 0.026887 0.968522
vt 0.006834 0.968522
vt 0.026887 0.988575
vt 0.765949 0.988575
vt 0.745892 0.651636
vt 0.006832 0.651637
vt 0.006832 0.373058
vt 0.745892 0.373058
vt 0.006837 0.030387
vt 0.663776 0.030389
vt 0.663776 0.011417
vt 0.006837 0.011417
vt 0.988578 0.331637
vt 0.969606 0.331637
vt 0.969609 0.988576
vt 0.988578 0.988576
vt 0.006832 0.048639
vt 0.006832 0.067664
vt 0.663756 0.067659
vt 0.663756 0.048639
vt 0.006830 0.085916
vt 0.006830 0.104940
vt 0.663755 0.104936
vt 0.663754 0.085916
vn 0.0000 1.0000 -0.0000
vn 0.0000 -1.0000 0.0000
vn 0.0000 0.0000 -1.0000
vn -1.0000 0.0000 0.0000
vn 1.0000 0.0000 0.0000
vn 0.0000 0.0000 1.0000
usemtl FoodCourtBenchShort
s off
f 1/1/1 4/2/1 8/3/1 5/4/1
f 3/5/1 2/6/1 6/7/1 7/8/1
f 4/2/1 3/5/1 7/8/1 8/3/1
f 9/9/2 13/10/2 16/11/2 12/12/2
f 11/13/2 15/14/2 14/15/2 10/16/2
f 12/12/2 16/11/2 15/14/2 11/13/2
f 3/17/3 4/18/3 12/12/3 11/13/3
f 2/19/4 3/17/4 11/13/4 10/16/4
f 4/18/5 1/20/5 9/9/5 12/12/5
f 8/21/6 7/22/6 15/14/6 16/11/6
f 7/22/5 6/23/5 14/15/5 15/14/5
f 5/24/4 8/21/4 16/11/4 13/10/4
f 17/25/6 18/26/6 20/27/6 19/28/6
f 21/29/3 23/30/3 24/31/3 22/32/3
f 19/28/1 20/27/1 24/33/1 23/34/1
f 18/35/2 17/36/2 21/37/2 22/38/2
f 25/39/2 29/40/2 32/41/2 28/42/2
f 27/43/2 31/44/2 30/45/2 26/46/2
f 28/42/2 32/41/2 31/44/2 27/43/2
f 33/47/1 36/48/1 40/49/1 37/50/1
f 35/51/1 34/52/1 38/53/1 39/54/1
f 36/48/1 35/51/1 39/54/1 40/49/1
f 27/55/3 35/51/3 36/48/3 28/56/3
f 26/57/4 34/52/4 35/51/4 27/55/4
f 28/56/5 36/48/5 33/47/5 25/58/5
f 32/59/6 40/49/6 39/54/6 31/60/6
f 31/60/5 39/54/5 38/53/5 30/61/5
f 29/62/4 37/50/4 40/49/4 32/59/4
f 41/63/6 43/64/6 44/65/6 42/66/6
f 45/67/3 46/68/3 48/69/3 47/70/3
f 43/64/2 47/71/2 48/72/2 44/65/2
f 42/73/1 46/74/1 45/75/1 41/76/1
f 49/77/2 50/78/2 52/79/2 51/80/2
f 51/81/4 52/79/4 56/82/4 55/83/4
f 55/84/1 56/82/1 54/85/1 53/86/1
f 53/87/5 54/85/5 50/78/5 49/88/5
f 51/89/3 55/90/3 53/91/3 49/92/3
f 56/82/6 52/79/6 50/78/6 54/85/6
f 57/93/6 59/94/6 60/95/6 58/96/6
f 61/97/3 62/98/3 64/99/3 63/100/3
f 60/101/4 64/102/4 62/103/4 58/104/4
f 57/105/5 61/106/5 63/107/5 59/108/5
