# Blender v2.80 (sub 75) OBJ File: 'COL.blend'
# www.blender.org
mtllib RecTable_Col.mtl
o Cube
v -0.900000 -0.500000 0.726562
v -0.900000 -0.500000 0.750000
v -0.900000 0.500000 0.726562
v -0.900000 0.500000 0.750000
v 0.900000 -0.500000 0.726562
v 0.900000 -0.500000 0.750000
v 0.900000 0.500000 0.726562
v 0.900000 0.500000 0.750000
vt 0.375000 0.000000
vt 0.625000 0.000000
vt 0.625000 0.250000
vt 0.375000 0.250000
vt 0.625000 0.500000
vt 0.375000 0.500000
vt 0.625000 0.750000
vt 0.375000 0.750000
vt 0.625000 1.000000
vt 0.375000 1.000000
vt 0.125000 0.500000
vt 0.125000 0.750000
vt 0.875000 0.500000
vt 0.875000 0.750000
vn -1.0000 0.0000 0.0000
vn 0.0000 1.0000 0.0000
vn 1.0000 0.0000 0.0000
vn 0.0000 -1.0000 0.0000
vn 0.0000 0.0000 -1.0000
vn 0.0000 0.0000 1.0000
usemtl (null)
s off
f 1/1/1 2/2/1 4/3/1 3/4/1
f 3/4/2 4/3/2 8/5/2 7/6/2
f 7/6/3 8/5/3 6/7/3 5/8/3
f 5/8/4 6/7/4 2/9/4 1/10/4
f 3/11/5 7/6/5 5/8/5 1/12/5
f 8/5/6 4/13/6 2/14/6 6/7/6
o Cube.001
v 0.632324 -0.445664 0.000000
v 0.632324 -0.445664 0.726562
v 0.632324 -0.323290 0.000000
v 0.632324 -0.323290 0.726562
v 0.767682 -0.445664 0.000000
v 0.767682 -0.445664 0.726562
v 0.767682 -0.323290 0.000000
v 0.767682 -0.323290 0.726562
vt 0.375000 0.000000
vt 0.625000 0.000000
vt 0.625000 0.250000
vt 0.375000 0.250000
vt 0.625000 0.500000
vt 0.375000 0.500000
vt 0.625000 0.750000
vt 0.375000 0.750000
vt 0.625000 1.000000
vt 0.375000 1.000000
vn -1.0000 0.0000 0.0000
vn 0.0000 1.0000 0.0000
vn 1.0000 0.0000 0.0000
vn 0.0000 -1.0000 0.0000
usemtl None
s off
f 9/15/7 10/16/7 12/17/7 11/18/7
f 11/18/8 12/17/8 16/19/8 15/20/8
f 15/20/9 16/19/9 14/21/9 13/22/9
f 13/22/10 14/21/10 10/23/10 9/24/10
o Cube.002
v 0.632324 0.323290 0.000000
v 0.632324 0.323290 0.726562
v 0.632324 0.445664 0.000000
v 0.632324 0.445664 0.726562
v 0.767682 0.323290 0.000000
v 0.767682 0.323290 0.726562
v 0.767682 0.445664 0.000000
v 0.767682 0.445664 0.726562
vt 0.375000 0.000000
vt 0.625000 0.000000
vt 0.625000 0.250000
vt 0.375000 0.250000
vt 0.625000 0.500000
vt 0.375000 0.500000
vt 0.625000 0.750000
vt 0.375000 0.750000
vt 0.625000 1.000000
vt 0.375000 1.000000
vn -1.0000 0.0000 0.0000
vn 0.0000 1.0000 0.0000
vn 1.0000 0.0000 0.0000
vn 0.0000 -1.0000 0.0000
usemtl None
s off
f 17/25/11 18/26/11 20/27/11 19/28/11
f 19/28/12 20/27/12 24/29/12 23/30/12
f 23/30/13 24/29/13 22/31/13 21/32/13
f 21/32/14 22/31/14 18/33/14 17/34/14
o Cube.003
v -0.767682 -0.445664 0.000000
v -0.767682 -0.445664 0.726562
v -0.767682 -0.323290 0.000000
v -0.767682 -0.323290 0.726562
v -0.632324 -0.445664 0.000000
v -0.632324 -0.445664 0.726562
v -0.632324 -0.323290 0.000000
v -0.632324 -0.323290 0.726562
vt 0.375000 0.000000
vt 0.625000 0.000000
vt 0.625000 0.250000
vt 0.375000 0.250000
vt 0.625000 0.500000
vt 0.375000 0.500000
vt 0.625000 0.750000
vt 0.375000 0.750000
vt 0.625000 1.000000
vt 0.375000 1.000000
vn -1.0000 0.0000 0.0000
vn 0.0000 1.0000 0.0000
vn 1.0000 0.0000 0.0000
vn 0.0000 -1.0000 0.0000
usemtl None
s off
f 25/35/15 26/36/15 28/37/15 27/38/15
f 27/38/16 28/37/16 32/39/16 31/40/16
f 31/40/17 32/39/17 30/41/17 29/42/17
f 29/42/18 30/41/18 26/43/18 25/44/18
o Cube.004
v -0.767682 0.323290 0.000000
v -0.767682 0.323290 0.726562
v -0.767682 0.445664 0.000000
v -0.767682 0.445664 0.726562
v -0.632324 0.323290 0.000000
v -0.632324 0.323290 0.726562
v -0.632324 0.445664 0.000000
v -0.632324 0.445664 0.726562
vt 0.375000 0.000000
vt 0.625000 0.000000
vt 0.625000 0.250000
vt 0.375000 0.250000
vt 0.625000 0.500000
vt 0.375000 0.500000
vt 0.625000 0.750000
vt 0.375000 0.750000
vt 0.625000 1.000000
vt 0.375000 1.000000
vn -1.0000 0.0000 0.0000
vn 0.0000 1.0000 0.0000
vn 1.0000 0.0000 0.0000
vn 0.0000 -1.0000 0.0000
usemtl None
s off
f 33/45/19 34/46/19 36/47/19 35/48/19
f 35/48/20 36/47/20 40/49/20 39/50/20
f 39/50/21 40/49/21 38/51/21 37/52/21
f 37/52/22 38/51/22 34/53/22 33/54/22
