# Blender v2.79 (sub 0) OBJ File: 'table4.blend'
# www.blender.org
mtllib table.mtl
o table
v -0.769328 0.049839 0.103309
v -0.769328 0.049839 0.203553
v -0.769328 0.352260 0.578097
v -0.769328 0.458850 0.578097
v -0.869573 0.352260 0.578097
v -0.819451 0.352260 0.103309
v -0.769328 0.352260 0.103309
v -0.819451 0.352260 0.203553
v -0.769328 0.458850 0.103309
v -0.769328 0.458850 -0.000196
v -0.869573 0.458850 0.678342
v -0.869573 0.352260 -0.000196
v -0.869573 0.458850 -0.000196
v -0.869573 0.352260 0.203553
v -0.769328 0.352260 0.203553
v -0.769328 0.458850 0.203553
v -0.869573 0.458850 0.203553
v -0.819451 0.049839 0.203553
v -0.819451 0.049839 0.103309
v -0.869573 0.352260 0.103309
v -0.869573 0.458850 0.103309
v -0.769328 0.458850 0.678342
v -0.869573 0.352260 0.678342
v -0.769328 0.352260 0.678342
v -0.869573 0.458850 0.578097
v -0.819451 0.352260 0.578097
v -0.819451 0.352260 -0.000196
v -0.769328 0.352260 -0.000196
v 0.769328 0.049839 0.103309
v 0.769328 0.049839 0.203553
v 0.769328 0.352260 0.578097
v 0.769328 0.458850 0.578097
v 0.869573 0.352260 0.578097
v 0.819451 0.352260 0.103309
v 0.769328 0.352260 0.103309
v 0.819451 0.352260 0.203553
v 0.769328 0.458850 0.103309
v 0.769328 0.458850 -0.000196
v 0.869573 0.458850 0.678342
v 0.869573 0.352260 -0.000196
v 0.869573 0.458850 -0.000196
v 0.869573 0.352260 0.203553
v 0.769328 0.352260 0.203553
v 0.769328 0.458850 0.203553
v 0.869573 0.458850 0.203553
v 0.819451 0.049839 0.203553
v 0.819451 0.049839 0.103309
v 0.869573 0.352260 0.103309
v 0.869573 0.458850 0.103309
v 0.769328 0.458850 0.678342
v 0.869573 0.352260 0.678342
v 0.769328 0.352260 0.678342
v 0.869573 0.458850 0.578097
v 0.819451 0.352260 0.578097
v 0.819451 0.352260 -0.000196
v 0.769328 0.352260 -0.000196
v -0.769328 -0.049839 0.103309
v -0.769328 -0.049839 0.203553
v -0.769328 -0.352260 0.578097
v -0.769328 -0.458850 0.578097
v -0.869573 -0.352260 0.578097
v -0.819451 -0.352260 0.103309
v -0.769328 -0.352260 0.103309
v -0.819451 -0.352260 0.203553
v -0.769328 -0.458850 0.103309
v -0.769328 -0.458850 -0.000196
v -0.869573 -0.458850 0.678342
v -0.869573 -0.352260 -0.000196
v -0.869573 -0.458850 -0.000196
v -0.869573 -0.352260 0.203553
v -0.769328 -0.352260 0.203553
v -0.769328 -0.458850 0.203553
v -0.869573 -0.458850 0.203553
v -0.819451 -0.049839 0.203553
v -0.819451 -0.049839 0.103309
v -0.869573 -0.352260 0.103309
v -0.869573 -0.458850 0.103309
v -0.769328 -0.458850 0.678342
v -0.869573 -0.352260 0.678342
v -0.769328 -0.352260 0.678342
v -0.869573 -0.458850 0.578097
v -0.819451 -0.352260 0.578097
v -0.819451 -0.352260 -0.000196
v -0.769328 -0.352260 -0.000196
v 0.769328 -0.049839 0.103309
v 0.769328 -0.049839 0.203553
v 0.769328 -0.352260 0.578097
v 0.769328 -0.458850 0.578097
v 0.869573 -0.352260 0.578097
v 0.819451 -0.352260 0.103309
v 0.769328 -0.352260 0.103309
v 0.819451 -0.352260 0.203553
v 0.769328 -0.458850 0.103309
v 0.769328 -0.458850 -0.000196
v 0.869573 -0.458850 0.678342
v 0.869573 -0.352260 -0.000196
v 0.869573 -0.458850 -0.000196
v 0.869573 -0.352260 0.203553
v 0.769328 -0.352260 0.203553
v 0.769328 -0.458850 0.203553
v 0.869573 -0.458850 0.203553
v 0.819451 -0.049839 0.203553
v 0.819451 -0.049839 0.103309
v 0.869573 -0.352260 0.103309
v 0.869573 -0.458850 0.103309
v 0.769328 -0.458850 0.678342
v 0.869573 -0.352260 0.678342
v 0.769328 -0.352260 0.678342
v 0.869573 -0.458850 0.578097
v 0.819451 -0.352260 0.578097
v 0.819451 -0.352260 -0.000196
v 0.769328 -0.352260 -0.000196
vt 0.234512 0.473474
vt 0.031135 0.502412
vt 0.031135 0.473474
vt 0.000365 0.619219
vt 0.014834 0.706519
vt 0.000365 0.706519
vt 0.891623 0.206581
vt 0.860853 0.177643
vt 0.891623 0.177643
vt 0.869252 0.807871
vt 0.956553 0.836809
vt 0.869252 0.836809
vt 0.939343 0.263290
vt 0.924874 0.234352
vt 0.939343 0.234352
vt 0.860853 0.040584
vt 0.657476 0.069522
vt 0.657476 0.040584
vt 0.891622 0.236461
vt 0.860853 0.206581
vt 0.459007 0.794552
vt 0.473476 0.823327
vt 0.459007 0.823327
vt 0.869252 0.866688
vt 0.838483 0.836809
vt 0.786503 0.435976
vt 0.757728 0.407038
vt 0.786503 0.407038
vt 0.891622 0.069522
vt 0.838483 0.699750
vt 0.869252 0.699750
vt 0.014834 0.619219
vt 0.000365 0.590445
vt 0.014834 0.590445
vt 0.459007 0.910629
vt 0.758146 0.029303
vt 0.728267 0.000365
vt 0.758146 0.000365
vt 0.939343 0.204473
vt 0.895205 0.029303
vt 0.924143 0.473473
vt 0.895205 0.473473
vt 0.924874 0.371411
vt 0.924874 0.263290
vt 0.838483 0.807871
vt 0.265281 0.502412
vt 0.265281 0.473474
vt 0.787084 0.029303
vt 0.787084 0.000365
vt 0.500158 0.473474
vt 0.530928 0.029303
vt 0.530928 0.473474
vt 0.670427 0.435976
vt 0.670427 0.407038
vt 0.296781 0.014834
vt 0.500158 0.000365
vt 0.500158 0.014834
vt 0.924143 0.029303
vt 0.895205 0.000365
vt 0.924143 0.000365
vt 0.891622 0.040584
vt 0.860853 0.069522
vt 0.296781 0.487943
vt 0.500158 0.487943
vt 0.953812 0.204473
vt 0.953812 0.234352
vt 0.953812 0.371411
vt 0.939343 0.371411
vt 0.234512 0.029303
vt 0.031135 0.029303
vt 0.459007 0.706520
vt 0.473476 0.619219
vt 0.473476 0.706520
vt 0.904960 0.561960
vt 0.935730 0.533022
vt 0.935730 0.561960
vt 0.578790 0.277118
vt 0.666091 0.248180
vt 0.666091 0.277118
vt 0.137424 0.999635
vt 0.108487 0.985166
vt 0.137425 0.985166
vt 0.904960 0.533022
vt 0.935730 0.503143
vt 0.000365 0.794552
vt 0.014834 0.823327
vt 0.000365 0.823327
vt 0.696861 0.277118
vt 0.666091 0.306997
vt 0.459007 0.590444
vt 0.444535 0.911359
vt 0.000365 0.940297
vt 0.000365 0.911359
vt 0.500158 0.029303
vt 0.296781 0.473474
vt 0.296781 0.029303
vt 0.935730 0.670081
vt 0.696861 0.140059
vt 0.666091 0.140059
vt 0.473476 0.590444
vt 0.459007 0.619219
vt 0.014834 0.910627
vt 0.728266 0.502411
vt 0.758146 0.473473
vt 0.758145 0.502411
vt 0.167304 0.985166
vt 0.000365 0.999635
vt 0.108487 0.999635
vt 0.696861 0.248180
vt 0.265281 0.000365
vt 0.265281 0.029303
vt 0.787084 0.473472
vt 0.787084 0.502411
vt 0.924874 0.203742
vt 0.953812 0.116441
vt 0.953812 0.203742
vt 0.895205 0.502411
vt 0.924143 0.502411
vt 0.014834 0.794552
vt 0.904960 0.670081
vt 0.935730 0.699019
vt 0.904960 0.699019
vt 0.266012 0.029303
vt 0.266012 0.473474
vt 0.167304 0.970697
vt 0.137424 0.970697
vt 0.000365 0.970697
vt 0.000365 0.985166
vt 0.014834 0.503144
vt 0.000365 0.503145
vt 0.657476 0.177643
vt 0.626706 0.206581
vt 0.626706 0.177643
vt 0.670814 0.955610
vt 0.758115 0.926672
vt 0.758115 0.955610
vt 0.593008 0.905848
vt 0.607477 0.876911
vt 0.607477 0.905848
vt 0.657476 0.206581
vt 0.626706 0.236461
vt 0.788884 0.955610
vt 0.758115 0.985489
vt 0.000365 0.941028
vt 0.444535 0.969966
vt 0.000365 0.969966
vt 0.626706 0.069522
vt 0.788884 0.818551
vt 0.758115 0.818551
vt 0.459007 0.707251
vt 0.473476 0.794552
vt 0.727536 0.000365
vt 0.697656 0.029303
vt 0.697656 0.000365
vt 0.607477 0.935728
vt 0.531658 0.473473
vt 0.560596 0.029303
vt 0.560596 0.473473
vt 0.593008 0.768789
vt 0.593008 0.876911
vt 0.788884 0.926672
vt 0.000365 0.502412
vt 0.000365 0.473474
vt 0.668718 0.029303
vt 0.668718 0.000365
vt 0.000365 0.029303
vt 0.873804 0.435976
vt 0.873804 0.407038
vt 0.560597 0.000365
vt 0.531658 0.029303
vt 0.531658 0.000365
vt 0.626706 0.040584
vt 0.621946 0.935728
vt 0.621946 0.905848
vt 0.621946 0.768789
vt 0.607477 0.768789
vt 0.031135 0.000365
vt 0.459007 0.503142
vt 0.473476 0.503142
vt 0.701806 0.390074
vt 0.730744 0.359304
vt 0.730744 0.390074
vt 0.759171 0.136163
vt 0.671870 0.107225
vt 0.759171 0.107225
vt 0.637146 0.827606
vt 0.622677 0.798668
vt 0.637146 0.798668
vt 0.701583 0.670081
vt 0.701583 0.699019
vt 0.671927 0.390074
vt 0.701806 0.359304
vt 0.759171 0.077345
vt 0.789941 0.107225
vt 0.924874 0.087666
vt 0.953812 0.087666
vt 0.838865 0.390074
vt 0.789941 0.244284
vt 0.759171 0.244284
vt 0.014834 0.707252
vt 0.697655 0.473473
vt 0.727535 0.502411
vt 0.697655 0.502411
vt 0.637146 0.768789
vt 0.622677 0.935728
vt 0.622677 0.827606
vt 0.789941 0.136163
vt 0.000365 0.000365
vt 0.668717 0.473473
vt 0.668717 0.502411
vt 0.296781 0.502412
vt 0.500158 0.502412
vt 0.924874 0.000365
vt 0.953812 0.000365
vt 0.560596 0.502411
vt 0.531658 0.502411
vt 0.867803 0.390074
vt 0.838865 0.359304
vt 0.867803 0.359304
vt 0.651615 0.768789
vt 0.651615 0.798668
vt 0.651615 0.935728
vt 0.637146 0.935728
vt 0.234512 0.502412
vt 0.956553 0.807871
vt 0.860853 0.236461
vt 0.838483 0.866688
vt 0.757728 0.435976
vt 0.473476 0.910629
vt 0.728267 0.029303
vt 0.924874 0.204473
vt 0.296781 0.000365
vt 0.953812 0.263290
vt 0.578790 0.248180
vt 0.904960 0.503143
vt 0.696861 0.306997
vt 0.444535 0.940297
vt 0.000365 0.910627
vt 0.728266 0.473473
vt 0.167304 0.999635
vt 0.234512 0.000365
vt 0.924874 0.116441
vt 0.108487 0.970697
vt 0.670814 0.926672
vt 0.657476 0.236461
vt 0.788884 0.985489
vt 0.444535 0.941028
vt 0.473476 0.707251
vt 0.727536 0.029303
vt 0.593008 0.935728
vt 0.621946 0.876911
vt 0.671870 0.136163
vt 0.671927 0.359304
vt 0.789941 0.077345
vt 0.000365 0.707252
vt 0.727535 0.473473
vt 0.622677 0.768789
vt 0.651615 0.827606
vn 0.0000 0.0000 1.0000
vn -1.0000 0.0000 0.0000
vn 1.0000 0.0000 0.0000
vn 0.0000 -1.0000 0.0000
vn 0.0000 0.0000 -1.0000
vn 0.0000 1.0000 0.0000
usemtl table_wood
s off
f 24/1/1 79/2/1 80/3/1
f 18/4/1 15/5/1 8/6/1
f 21/7/2 14/8/2 17/9/2
f 15/10/3 1/11/3 7/12/3
f 8/13/4 20/14/4 6/15/4
f 23/16/2 61/17/2 79/18/2
f 13/19/2 20/20/2 21/7/2
f 57/21/5 19/22/5 1/23/5
f 28/24/3 9/25/3 7/12/3
f 74/26/2 19/27/2 75/28/2
f 14/8/2 25/29/2 17/9/2
f 15/10/3 4/30/3 3/31/3
f 2/32/1 74/33/1 58/34/1
f 19/22/5 7/35/5 1/23/5
f 9/36/6 13/37/6 21/38/6
f 20/14/4 27/39/4 6/15/4
f 4/40/6 50/41/6 32/42/6
f 8/13/4 5/43/4 14/44/4
f 7/12/3 16/45/3 15/10/3
f 11/46/1 24/1/1 22/47/1
f 16/48/6 21/38/6 17/49/6
f 31/50/5 4/51/5 32/52/5
f 19/27/2 8/53/2 6/54/2
f 17/49/6 4/40/6 16/48/6
f 82/55/5 5/56/5 26/57/5
f 22/58/6 25/59/6 11/60/6
f 11/61/2 5/62/2 23/16/2
f 110/63/5 31/50/5 54/64/5
f 6/15/4 28/65/4 7/66/4
f 8/13/4 3/67/4 26/68/4
f 52/69/1 22/47/1 24/1/1
f 24/1/1 108/70/1 52/69/1
f 43/71/1 46/72/1 36/73/1
f 42/74/3 49/75/3 45/76/3
f 29/77/2 43/78/2 35/79/2
f 48/80/4 36/81/4 34/82/4
f 48/83/3 41/84/3 49/75/3
f 103/85/5 29/86/5 47/87/5
f 37/88/2 56/89/2 35/79/2
f 86/90/1 2/32/1 58/34/1
f 1/91/6 30/92/6 29/93/6
f 3/94/5 87/95/5 59/96/5
f 53/97/3 42/74/3 45/76/3
f 32/98/2 43/78/2 31/99/2
f 102/100/1 30/101/1 86/90/1
f 35/102/5 47/87/5 29/86/5
f 41/103/6 37/104/6 49/105/6
f 55/106/4 48/80/4 34/82/4
f 33/107/4 36/81/4 42/108/4
f 44/109/2 35/79/2 43/78/2
f 52/69/1 39/110/1 50/111/1
f 49/105/6 44/112/6 45/113/6
f 36/114/3 47/115/3 34/116/3
f 32/42/6 45/113/6 44/112/6
f 53/117/6 50/41/6 39/118/6
f 1/23/5 85/119/5 57/21/5
f 33/120/3 39/121/3 51/122/3
f 60/123/5 87/95/5 88/124/5
f 56/125/4 34/82/4 35/126/4
f 31/127/4 36/81/4 54/128/4
f 71/129/1 74/33/1 64/130/1
f 70/131/2 77/132/2 73/133/2
f 57/134/3 71/135/3 63/136/3
f 76/137/6 64/138/6 62/139/6
f 76/140/2 69/141/2 77/132/2
f 65/142/3 84/143/3 63/136/3
f 86/144/4 57/145/4 85/146/4
f 81/147/2 70/131/2 73/133/2
f 60/148/3 71/135/3 59/149/3
f 63/150/5 75/151/5 57/21/5
f 69/152/4 65/153/4 77/154/4
f 83/155/6 76/137/6 62/139/6
f 106/156/4 60/157/4 88/158/4
f 61/159/6 64/138/6 70/160/6
f 72/161/3 63/136/3 71/135/3
f 80/3/1 67/162/1 78/163/1
f 77/154/4 72/164/4 73/165/4
f 106/166/1 80/3/1 78/163/1
f 64/167/2 75/28/2 62/168/2
f 60/157/4 73/165/4 72/164/4
f 81/169/4 78/170/4 67/171/4
f 61/17/2 67/172/2 79/18/2
f 84/173/6 62/139/6 63/174/6
f 59/175/6 64/138/6 82/176/6
f 107/177/1 52/69/1 108/70/1
f 102/100/1 99/178/1 92/179/1
f 105/180/3 98/181/3 101/182/3
f 99/183/2 85/184/2 91/185/2
f 92/186/6 104/187/6 90/188/6
f 89/189/3 51/122/3 107/190/3
f 97/191/3 104/192/3 105/180/3
f 112/193/2 93/194/2 91/185/2
f 47/115/3 102/195/3 103/196/3
f 98/181/3 109/197/3 101/182/3
f 99/183/2 88/198/2 87/199/2
f 103/85/5 91/200/5 85/119/5
f 93/201/4 97/202/4 105/203/4
f 104/187/6 111/204/6 90/188/6
f 92/186/6 89/205/6 98/206/6
f 91/185/2 100/207/2 99/183/2
f 95/208/1 108/70/1 106/166/1
f 100/209/4 105/203/4 101/210/4
f 89/211/5 54/64/5 33/212/5
f 103/196/3 92/213/3 90/214/3
f 101/210/4 88/158/4 100/209/4
f 106/156/4 109/215/4 95/216/4
f 95/217/3 89/218/3 107/219/3
f 90/188/6 112/220/6 91/221/6
f 92/186/6 87/222/6 110/223/6
f 59/96/5 26/57/5 3/94/5
f 24/1/1 23/224/1 79/2/1
f 18/4/1 2/32/1 15/5/1
f 21/7/2 20/20/2 14/8/2
f 15/10/3 2/225/3 1/11/3
f 8/13/4 14/44/4 20/14/4
f 23/16/2 5/62/2 61/17/2
f 13/19/2 12/226/2 20/20/2
f 57/21/5 75/151/5 19/22/5
f 28/24/3 10/227/3 9/25/3
f 74/26/2 18/228/2 19/27/2
f 14/8/2 5/62/2 25/29/2
f 15/10/3 16/45/3 4/30/3
f 2/32/1 18/4/1 74/33/1
f 19/22/5 6/229/5 7/35/5
f 9/36/6 10/230/6 13/37/6
f 20/14/4 12/231/4 27/39/4
f 4/40/6 22/58/6 50/41/6
f 8/13/4 26/68/4 5/43/4
f 7/12/3 9/25/3 16/45/3
f 11/46/1 23/224/1 24/1/1
f 16/48/6 9/36/6 21/38/6
f 31/50/5 3/94/5 4/51/5
f 19/27/2 18/228/2 8/53/2
f 17/49/6 25/59/6 4/40/6
f 82/55/5 61/232/5 5/56/5
f 22/58/6 4/40/6 25/59/6
f 11/61/2 25/29/2 5/62/2
f 110/63/5 87/95/5 31/50/5
f 6/15/4 27/39/4 28/65/4
f 8/13/4 15/233/4 3/67/4
f 52/69/1 50/111/1 22/47/1
f 24/1/1 80/3/1 108/70/1
f 43/71/1 30/101/1 46/72/1
f 42/74/3 48/83/3 49/75/3
f 29/77/2 30/234/2 43/78/2
f 48/80/4 42/108/4 36/81/4
f 48/83/3 40/235/3 41/84/3
f 103/85/5 85/119/5 29/86/5
f 37/88/2 38/236/2 56/89/2
f 86/90/1 30/101/1 2/32/1
f 1/91/6 2/237/6 30/92/6
f 3/94/5 31/50/5 87/95/5
f 53/97/3 33/120/3 42/74/3
f 32/98/2 44/109/2 43/78/2
f 102/100/1 46/72/1 30/101/1
f 35/102/5 34/238/5 47/87/5
f 41/103/6 38/239/6 37/104/6
f 55/106/4 40/240/4 48/80/4
f 33/107/4 54/128/4 36/81/4
f 44/109/2 37/88/2 35/79/2
f 52/69/1 51/241/1 39/110/1
f 49/105/6 37/104/6 44/112/6
f 36/114/3 46/242/3 47/115/3
f 32/42/6 53/117/6 45/113/6
f 53/117/6 32/42/6 50/41/6
f 1/23/5 29/86/5 85/119/5
f 33/120/3 53/97/3 39/121/3
f 60/123/5 59/96/5 87/95/5
f 56/125/4 55/106/4 34/82/4
f 31/127/4 43/243/4 36/81/4
f 71/129/1 58/34/1 74/33/1
f 70/131/2 76/140/2 77/132/2
f 57/134/3 58/244/3 71/135/3
f 76/137/6 70/160/6 64/138/6
f 76/140/2 68/245/2 69/141/2
f 65/142/3 66/246/3 84/143/3
f 86/144/4 58/247/4 57/145/4
f 81/147/2 61/17/2 70/131/2
f 60/148/3 72/161/3 71/135/3
f 63/150/5 62/248/5 75/151/5
f 69/152/4 66/249/4 65/153/4
f 83/155/6 68/250/6 76/137/6
f 106/156/4 78/170/4 60/157/4
f 61/159/6 82/176/6 64/138/6
f 72/161/3 65/142/3 63/136/3
f 80/3/1 79/2/1 67/162/1
f 77/154/4 65/153/4 72/164/4
f 106/166/1 108/70/1 80/3/1
f 64/167/2 74/26/2 75/28/2
f 60/157/4 81/169/4 73/165/4
f 81/169/4 60/157/4 78/170/4
f 61/17/2 81/147/2 67/172/2
f 84/173/6 83/155/6 62/139/6
f 59/175/6 71/251/6 64/138/6
f 107/177/1 51/241/1 52/69/1
f 102/100/1 86/90/1 99/178/1
f 105/180/3 104/192/3 98/181/3
f 99/183/2 86/252/2 85/184/2
f 92/186/6 98/206/6 104/187/6
f 89/189/3 33/120/3 51/122/3
f 97/191/3 96/253/3 104/192/3
f 112/193/2 94/254/2 93/194/2
f 47/115/3 46/242/3 102/195/3
f 98/181/3 89/218/3 109/197/3
f 99/183/2 100/207/2 88/198/2
f 103/85/5 90/255/5 91/200/5
f 93/201/4 94/256/4 97/202/4
f 104/187/6 96/257/6 111/204/6
f 92/186/6 110/223/6 89/205/6
f 91/185/2 93/194/2 100/207/2
f 95/208/1 107/177/1 108/70/1
f 100/209/4 93/201/4 105/203/4
f 89/211/5 110/63/5 54/64/5
f 103/196/3 102/195/3 92/213/3
f 101/210/4 109/215/4 88/158/4
f 106/156/4 88/158/4 109/215/4
f 95/217/3 109/197/3 89/218/3
f 90/188/6 111/204/6 112/220/6
f 92/186/6 99/258/6 87/222/6
f 59/96/5 82/55/5 26/57/5
