# Blender v2.79 (sub 0) OBJ File: 'WheelSide.blend'
# www.blender.org
mtllib WheelSide.mtl
o WheelSide_Cube.002
v 0.011103 -0.000000 0.057649
v -0.011103 -0.000000 0.057649
v -0.011103 -0.000000 0.061373
v 0.011103 -0.000000 0.061373
v -0.011103 0.044442 0.043397
v 0.011103 0.044442 0.043397
v -0.011103 0.062850 -0.000000
v 0.011103 0.062850 -0.000000
v -0.011103 0.044442 -0.043397
v 0.011103 0.044442 -0.043397
v -0.011103 -0.000000 -0.061373
v 0.011103 -0.000000 -0.061373
v -0.011103 -0.044442 -0.043397
v 0.011103 -0.044442 -0.043397
v -0.011103 -0.062851 -0.000000
v 0.011103 -0.062851 -0.000000
v -0.011103 -0.044442 0.043397
v 0.011103 -0.044442 0.043397
v -0.011103 0.041745 0.040764
v 0.011103 0.041745 0.040764
v -0.011103 0.059037 -0.000000
v 0.011103 0.059037 -0.000000
v -0.011103 0.041745 -0.040764
v 0.011103 0.041745 -0.040764
v -0.011103 -0.000000 -0.057649
v 0.011103 -0.000000 -0.057649
v -0.011103 -0.041745 -0.040764
v 0.011103 -0.041745 -0.040764
v -0.011103 -0.059037 -0.000000
v 0.011103 -0.059037 -0.000000
v -0.011103 -0.041745 0.040764
v 0.011103 -0.041745 0.040764
v 0.011103 -0.000000 0.039626
v -0.011103 -0.000000 0.039626
v -0.011103 0.028694 0.028020
v 0.011103 0.028694 0.028020
v -0.011103 0.040580 -0.000000
v 0.011103 0.040580 -0.000000
v -0.011103 0.028694 -0.028020
v 0.011103 0.028694 -0.028020
v -0.011103 -0.000000 -0.039626
v 0.011103 -0.000000 -0.039626
v -0.011103 -0.028694 -0.028020
v 0.011103 -0.028694 -0.028020
v -0.011103 -0.040580 -0.000000
v 0.011103 -0.040580 -0.000000
v -0.011103 -0.028694 0.028020
v 0.011103 -0.028694 0.028020
v 0.012414 0.000000 -0.000000
v -0.012414 0.000000 -0.000000
v 0.010001 -0.000000 0.057649
v -0.010001 -0.000000 0.057649
v 0.010001 -0.041745 0.040764
v -0.010001 -0.041745 0.040764
v 0.010001 -0.059037 -0.000000
v -0.010001 -0.059037 -0.000000
v 0.010001 -0.041745 -0.040764
v -0.010001 -0.041745 -0.040764
v 0.010001 -0.000000 -0.057649
v -0.010001 -0.000000 -0.057649
v 0.010001 0.041745 -0.040764
v -0.010001 0.041745 -0.040764
v 0.010001 0.059037 -0.000000
v -0.010001 0.059037 -0.000000
v 0.010001 0.041745 0.040764
v -0.010001 0.041745 0.040764
v 0.010001 -0.000000 0.039626
v -0.010001 -0.000000 0.039626
v 0.010001 -0.028694 0.028020
v -0.010001 -0.028694 0.028020
v 0.010001 -0.040580 -0.000000
v -0.010001 -0.040580 -0.000000
v 0.010001 -0.028694 -0.028020
v -0.010001 -0.028694 -0.028020
v 0.010001 -0.000000 -0.039626
v -0.010001 -0.000000 -0.039626
v 0.010001 0.028694 -0.028020
v -0.010001 0.028694 -0.028020
v 0.010001 0.040580 -0.000000
v -0.010001 0.040580 -0.000000
v 0.010001 0.028694 0.028020
v -0.010001 0.028694 0.028020
vt 0.210063 0.210688
vt 0.211223 0.210688
vt 0.211223 0.239862
vt 0.210063 0.239862
vt 0.289990 0.189295
vt 0.316272 0.189295
vt 0.316272 0.224238
vt 0.289990 0.224238
vt 0.196430 0.247071
vt 0.196430 0.245862
vt 0.226859 0.245862
vt 0.226859 0.247071
vt 0.291678 0.344591
vt 0.264420 0.344591
vt 0.264420 0.320446
vt 0.291678 0.320446
vt 0.275360 0.730920
vt 0.274032 0.730524
vt 0.274032 0.786153
vt 0.275360 0.786548
vt 0.289990 0.164179
vt 0.316272 0.164179
vt 0.215311 0.183488
vt 0.213959 0.183488
vt 0.213959 0.158905
vt 0.215311 0.158905
vt 0.218964 0.786934
vt 0.220712 0.786934
vt 0.220712 0.751884
vt 0.218964 0.751884
vt 0.215311 0.216907
vt 0.213959 0.216907
vt 0.215311 0.239587
vt 0.213959 0.239587
vt 0.659885 0.584122
vt 0.670737 0.573154
vt 0.679163 0.576751
vt 0.663375 0.592708
vt 0.199951 0.786922
vt 0.201661 0.786922
vt 0.201661 0.739619
vt 0.199951 0.739619
vt 0.205806 0.187036
vt 0.205806 0.154994
vt 0.207102 0.154994
vt 0.207103 0.187036
vt 0.203802 0.786922
vt 0.203802 0.739619
vt 0.202092 0.739619
vt 0.202092 0.786922
vt 0.625261 0.576435
vt 0.633687 0.572936
vt 0.644538 0.584032
vt 0.641048 0.592577
vt 0.644538 0.546367
vt 0.633687 0.557335
vt 0.625261 0.553737
vt 0.641048 0.537781
vt 0.273659 0.253294
vt 0.250756 0.216962
vt 0.253128 0.215368
vt 0.274642 0.249496
vt 0.608939 0.715513
vt 0.586612 0.715382
vt 0.590102 0.706837
vt 0.605448 0.706927
vt 0.624726 0.676859
vt 0.616300 0.680358
vt 0.605448 0.669262
vt 0.608938 0.660717
vt 0.624726 0.699557
vt 0.616300 0.695959
vt 0.570824 0.699240
vt 0.579250 0.695741
vt 0.586612 0.660586
vt 0.590102 0.669172
vt 0.570824 0.676543
vt 0.579250 0.680140
vt 0.679163 0.554054
vt 0.670737 0.557552
vt 0.659885 0.546457
vt 0.663375 0.537912
vt 0.158890 0.752154
vt 0.158890 0.702187
vt 0.160707 0.702187
vt 0.160707 0.752154
vt 0.291678 0.284867
vt 0.264420 0.284867
vt 0.264420 0.258696
vt 0.291678 0.258696
vt 0.203802 0.700537
vt 0.202092 0.700537
vt 0.182226 0.320195
vt 0.209484 0.320195
vt 0.209484 0.344340
vt 0.182226 0.344340
vt 0.158890 0.666277
vt 0.160707 0.666277
vt 0.279308 0.786153
vt 0.280636 0.786548
vt 0.280636 0.730920
vt 0.279308 0.730525
vt 0.338240 0.957421
vt 0.336491 0.957421
vt 0.336491 0.992471
vt 0.338240 0.992471
vt 0.205806 0.210605
vt 0.207103 0.210605
vt 0.218964 0.703830
vt 0.220712 0.703830
vt 0.218650 0.181810
vt 0.217298 0.181810
vt 0.217298 0.159129
vt 0.218650 0.159129
vt 0.218650 0.215231
vt 0.218650 0.239815
vt 0.217298 0.239815
vt 0.217298 0.215231
vt 0.336491 0.909368
vt 0.338240 0.909368
vt 0.305067 0.249181
vt 0.306050 0.252959
vt 0.161138 0.702188
vt 0.162955 0.702188
vt 0.162955 0.752154
vt 0.161138 0.752154
vt 0.162955 0.786908
vt 0.161138 0.786908
vt 0.207348 0.187037
vt 0.208645 0.187037
vt 0.208645 0.210606
vt 0.207348 0.210606
vt 0.196430 0.242498
vt 0.222227 0.242498
vt 0.222227 0.243924
vt 0.196430 0.243924
vt 0.160707 0.786908
vt 0.158890 0.786908
vt 0.182226 0.284616
vt 0.209484 0.284616
vt 0.273659 0.127846
vt 0.250756 0.091513
vt 0.253128 0.089919
vt 0.274642 0.124047
vt 0.305067 0.131900
vt 0.274642 0.132215
vt 0.273659 0.128437
vt 0.306050 0.128102
vt 0.201661 0.700537
vt 0.199951 0.700537
vt 0.207348 0.154994
vt 0.208645 0.154994
vt 0.208645 0.133250
vt 0.207348 0.133250
vt 0.082538 0.627878
vt 0.077226 0.622546
vt 0.073468 0.631822
vt 0.064401 0.628113
vt 0.064401 0.635750
vt 0.069713 0.622643
vt 0.069713 0.641083
vt 0.077226 0.640985
vt 0.082538 0.635516
vt 0.103548 0.627685
vt 0.102001 0.634361
vt 0.113077 0.630780
vt 0.119316 0.622965
vt 0.124300 0.627685
vt 0.122753 0.634361
vt 0.115581 0.639081
vt 0.106985 0.639081
vt 0.110720 0.622965
vt 0.161138 0.666278
vt 0.162955 0.666278
vt 0.196430 0.242243
vt 0.196430 0.240817
vt 0.222227 0.240817
vt 0.222227 0.242243
vt 0.205806 0.133250
vt 0.207103 0.133250
vt 0.273659 0.002988
vt 0.306050 0.002653
vt 0.305067 0.006451
vt 0.274642 0.006766
vt 0.250756 0.165245
vt 0.253128 0.166789
vt 0.306050 0.127510
vt 0.305067 0.123732
vt 0.250756 0.039795
vt 0.253128 0.041340
vt 0.328954 0.038985
vt 0.326581 0.040579
vt 0.326581 0.089158
vt 0.328954 0.090703
vt 0.328953 0.164434
vt 0.326581 0.166028
vt 0.328953 0.216152
vt 0.326581 0.214607
vt 0.182226 0.258445
vt 0.209484 0.258445
vn 0.0000 -0.3750 0.9270
vn 0.0000 0.3750 -0.9270
vn 0.0000 -0.3750 -0.9270
vn -0.0000 0.3750 0.9270
vn 0.0000 -0.9206 0.3905
vn 0.0000 -0.9206 -0.3905
vn -1.0000 -0.0000 -0.0000
vn 1.0000 0.0000 0.0000
vn 0.0000 0.9206 -0.3905
vn 0.0000 0.9206 0.3905
vn 0.9994 0.0323 -0.0137
vn 0.9994 -0.0134 0.0331
vn 0.9994 0.0134 0.0331
vn 0.9994 -0.0323 -0.0137
vn 0.9994 0.0134 -0.0331
vn 0.9994 0.0323 0.0137
vn 0.9994 -0.0323 0.0137
vn 0.9994 -0.0134 -0.0331
vn -0.9994 0.0323 0.0137
vn -0.9994 -0.0323 0.0137
vn -0.9994 -0.0134 -0.0331
vn -0.9994 0.0323 -0.0137
vn -0.9994 -0.0134 0.0331
vn -0.9994 0.0134 0.0331
vn -0.9994 -0.0323 -0.0137
vn -0.9994 0.0134 -0.0331
usemtl DeliveryRobot
s off
f 25/1/1 60/2/1 62/3/1 23/4/1
f 4/5/1 3/6/1 17/7/1 18/8/1
f 24/9/1 61/10/1 59/11/1 26/12/1
f 12/13/2 11/14/2 9/15/2 10/16/2
f 44/17/3 73/18/3 75/19/3 42/20/3
f 6/21/4 5/22/4 3/6/4 4/5/4
f 22/23/5 63/24/5 61/25/5 24/26/5
f 43/27/6 74/28/6 72/29/6 45/30/6
f 20/31/6 65/32/6 63/24/6 22/23/6
f 1/33/3 51/34/3 65/32/3 20/31/3
f 82/35/7 68/36/7 52/37/7 66/38/7
f 36/39/4 81/40/4 67/41/4 33/42/4
f 64/43/6 66/44/6 19/45/6 21/46/6
f 35/47/4 34/48/4 68/49/4 82/50/4
f 62/51/7 78/52/7 80/53/7 64/54/7
f 74/55/7 76/56/7 60/57/7 58/58/7
f 10/59/8 8/60/8 22/61/8 24/62/8
f 61/63/8 63/64/8 79/65/8 77/66/8
f 57/67/8 73/68/8 71/69/8 55/70/8
f 59/71/8 61/63/8 77/66/8 75/72/8
f 65/73/8 81/74/8 79/65/8 63/64/8
f 66/38/7 64/54/7 80/53/7 82/35/7
f 53/75/8 55/70/8 71/69/8 69/76/8
f 51/77/8 67/78/8 81/74/8 65/73/8
f 54/79/7 70/80/7 72/81/7 56/82/7
f 59/71/8 75/72/8 73/68/8 57/67/8
f 60/57/7 76/56/7 78/52/7 62/51/7
f 52/37/7 68/36/7 70/80/7 54/79/7
f 77/83/9 79/84/9 38/85/9 40/86/9
f 8/87/10 7/88/10 5/89/10 6/90/10
f 47/91/1 70/92/1 68/49/1 34/48/1
f 14/93/3 13/94/3 11/95/3 12/96/3
f 79/84/10 81/97/10 36/98/10 38/85/10
f 10/16/9 9/15/9 7/88/9 8/87/9
f 41/99/3 76/100/3 74/101/3 43/102/3
f 58/58/7 56/82/7 72/81/7 74/55/7
f 46/103/6 71/104/6 73/105/6 44/106/6
f 62/107/5 64/43/5 21/46/5 23/108/5
f 47/109/5 45/30/5 72/29/5 70/110/5
f 32/111/2 53/112/2 51/113/2 1/114/2
f 30/115/10 28/116/10 57/117/10 55/118/10
f 69/119/5 71/104/5 46/103/5 48/120/5
f 24/62/8 26/121/8 12/122/8 10/59/8
f 37/123/9 80/124/9 78/125/9 39/126/9
f 39/126/2 78/125/2 76/127/2 41/128/2
f 29/129/10 56/130/10 58/131/10 27/132/10
f 30/115/9 55/118/9 53/112/9 32/111/9
f 28/133/4 26/134/4 59/135/4 57/136/4
f 42/137/2 75/138/2 77/83/2 40/86/2
f 16/139/6 15/140/6 13/94/6 14/93/6
f 13/141/7 15/142/7 29/143/7 27/144/7
f 32/145/8 1/146/8 4/147/8 18/148/8
f 67/41/1 69/149/1 48/150/1 33/42/1
f 31/151/9 54/152/9 56/130/9 29/129/9
f 52/153/2 54/152/2 31/151/2 2/154/2
f 40/155/11 38/156/11 49/157/11
f 33/158/12 48/159/12 49/157/12
f 36/160/13 33/158/13 49/157/13
f 46/161/14 44/162/14 49/157/14
f 42/163/15 40/155/15 49/157/15
f 38/156/16 36/160/16 49/157/16
f 48/159/17 46/161/17 49/157/17
f 44/162/18 42/163/18 49/157/18
f 35/164/19 37/165/19 50/166/19
f 47/167/20 50/166/20 45/168/20
f 43/169/21 50/166/21 41/170/21
f 39/171/22 50/166/22 37/165/22
f 47/167/23 34/172/23 50/166/23
f 35/164/24 50/166/24 34/172/24
f 43/169/25 45/168/25 50/166/25
f 39/171/26 41/170/26 50/166/26
f 35/173/10 82/174/10 80/124/10 37/123/10
f 27/175/4 58/176/4 60/177/4 25/178/4
f 19/45/3 66/44/3 52/179/3 2/180/3
f 3/181/7 5/182/7 19/183/7 2/184/7
f 6/185/8 20/186/8 22/61/8 8/60/8
f 11/187/7 13/141/7 27/144/7 25/188/7
f 17/189/7 31/190/7 29/143/7 15/142/7
f 51/77/8 53/75/8 69/76/8 67/78/8
f 3/181/7 2/184/7 31/190/7 17/189/7
f 5/182/7 7/191/7 21/192/7 19/183/7
f 11/187/7 25/188/7 23/193/7 9/194/7
f 18/148/8 16/195/8 30/196/8 32/145/8
f 9/194/7 23/193/7 21/192/7 7/191/7
f 4/147/8 1/146/8 20/186/8 6/185/8
f 14/197/8 28/198/8 30/196/8 16/195/8
f 12/122/8 26/121/8 28/198/8 14/197/8
f 16/139/5 18/199/5 17/200/5 15/140/5
