# Blender v2.80 (sub 75) OBJ File: 'PatientWheelChair.blend'
# www.blender.org
mtllib PatientWheelChair_Col.mtl
o PatientWheelChair_Col_Cube
v -0.325365 -0.558675 0.000000
v -0.325365 -0.560563 0.186161
v -0.325365 0.565168 0.000000
v -0.325365 0.559506 0.739138
v 0.325365 -0.558675 0.000000
v 0.325365 -0.560563 0.186161
v 0.325365 0.565168 0.000000
v 0.325365 0.559506 0.739138
v -0.325365 -0.560563 0.186161
v -0.325365 0.559506 0.739138
v 0.325365 -0.560563 0.186161
v 0.325365 0.559506 0.739138
v -0.302474 -0.103722 1.284839
v -0.302474 0.117763 1.277290
v 0.302474 -0.103722 1.284839
v 0.302474 0.117763 1.277290
vt 0.375000 0.000000
vt 0.625000 0.000000
vt 0.625000 0.250000
vt 0.375000 0.250000
vt 0.625000 0.500000
vt 0.375000 0.500000
vt 0.625000 0.750000
vt 0.375000 0.750000
vt 0.625000 1.000000
vt 0.375000 1.000000
vt 0.125000 0.500000
vt 0.125000 0.750000
vt 0.625000 0.500000
vt 0.625000 0.750000
vt 0.625000 1.000000
vt 0.625000 0.750000
vt 0.625000 1.000000
vt 0.625000 0.000000
vt 0.625000 0.250000
vt 0.625000 0.500000
vt 0.875000 0.500000
vt 0.875000 0.750000
vt 0.625000 0.250000
vt 0.625000 0.000000
vn -1.0000 0.0000 0.0000
vn 0.0000 1.0000 0.0077
vn 1.0000 0.0000 0.0000
vn 0.0000 -0.9999 -0.0101
vn 0.0000 0.0000 -1.0000
vn 0.0000 0.0000 1.0000
vn 0.0000 -0.9234 0.3839
vn 0.0000 0.0341 0.9994
vn 0.0000 0.7729 0.6345
vn 0.9995 -0.0114 0.0281
vn -0.9995 -0.0114 0.0281
usemtl None
s off
f 1/1/1 2/2/1 4/3/1 3/4/1
f 3/4/2 4/3/2 8/5/2 7/6/2
f 7/6/3 8/5/3 6/7/3 5/8/3
f 5/8/4 6/7/4 2/9/4 1/10/4
f 3/11/5 7/6/5 5/8/5 1/12/5
f 6/7/6 8/5/6 12/13/6 11/14/6
f 9/15/7 11/14/7 15/16/7 13/17/7
f 4/3/6 2/2/6 9/18/6 10/19/6
f 2/9/6 6/7/6 11/14/6 9/15/6
f 8/5/6 4/3/6 10/19/6 12/13/6
f 16/20/8 14/21/8 13/22/8 15/16/8
f 12/13/9 10/19/9 14/23/9 16/20/9
f 11/14/10 12/13/10 16/20/10 15/16/10
f 10/19/11 9/18/11 13/24/11 14/23/11
