# Blender v2.81 (sub 16) OBJ File: 'Drawer.blend'
# www.blender.org
mtllib Drawer.mtl
o Drawer_LP
v 0.021002 -0.251522 0.565723
v 0.032635 -0.238876 0.565723
v 0.021002 -0.251522 0.556776
v 0.032635 -0.238876 0.556776
v 0.025067 -0.257928 0.563677
v 0.042834 -0.238948 0.563677
v 0.025067 -0.257928 0.558822
v 0.042834 -0.238948 0.558822
v 0.000000 -0.254927 0.565723
v -0.021002 -0.251522 0.565723
v -0.032635 -0.238876 0.565723
v 0.000000 -0.254927 0.556776
v -0.021002 -0.251522 0.556776
v -0.032635 -0.238876 0.556776
v -0.025067 -0.257928 0.563677
v 0.000000 -0.262323 0.563677
v -0.042834 -0.238948 0.563677
v -0.025067 -0.257928 0.558822
v 0.000000 -0.262323 0.558822
v -0.042834 -0.238948 0.558822
v 0.021002 -0.251522 0.425931
v 0.032635 -0.238876 0.425931
v 0.021002 -0.251522 0.416984
v 0.032635 -0.238876 0.416984
v 0.025067 -0.257928 0.423885
v 0.042834 -0.238948 0.423885
v 0.025067 -0.257928 0.419030
v 0.042834 -0.238948 0.419030
v 0.000000 -0.254927 0.425931
v -0.021002 -0.251522 0.425931
v -0.032635 -0.238876 0.425931
v 0.000000 -0.254927 0.416984
v -0.021002 -0.251522 0.416984
v -0.032635 -0.238876 0.416984
v -0.025067 -0.257928 0.423885
v 0.000000 -0.262323 0.423885
v -0.042834 -0.238948 0.423885
v -0.025067 -0.257928 0.419030
v 0.000000 -0.262323 0.419030
v -0.042834 -0.238948 0.419030
v 0.021002 -0.251522 0.249308
v 0.032635 -0.238876 0.249308
v 0.021002 -0.251522 0.240361
v 0.032635 -0.238876 0.240361
v 0.025067 -0.257928 0.247262
v 0.042834 -0.238948 0.247262
v 0.025067 -0.257928 0.242407
v 0.042834 -0.238948 0.242407
v 0.000000 -0.254927 0.249308
v -0.021002 -0.251522 0.249308
v -0.032635 -0.238876 0.249308
v 0.000000 -0.254927 0.240361
v -0.021002 -0.251522 0.240361
v -0.032635 -0.238876 0.240361
v -0.025067 -0.257928 0.247262
v 0.000000 -0.262323 0.247262
v -0.042834 -0.238948 0.247262
v -0.025067 -0.257928 0.242407
v 0.000000 -0.262323 0.242407
v -0.042834 -0.238948 0.242407
v -0.205000 -0.241531 0.008780
v -0.205000 -0.241531 0.630000
v -0.205000 0.240000 0.008780
v -0.205000 0.240000 0.630000
v 0.205000 -0.241531 0.008780
v 0.205000 -0.241531 0.630000
v 0.205000 0.240000 0.008780
v 0.205000 0.240000 0.630000
vt 0.987506 0.986044
vt 0.539398 0.986044
vt 0.539398 0.644628
vt 0.987506 0.644628
vt 0.539398 0.353002
vt 0.987506 0.353002
vt 0.539398 0.011586
vt 0.987506 0.011586
vt 0.430748 0.344308
vt 0.430748 0.989825
vt 0.010650 0.989825
vt 0.010650 0.344309
vt 0.010538 0.331102
vt 0.010538 0.011535
vt 0.384666 0.011535
vt 0.384665 0.331102
vt 0.503134 0.313284
vt 0.525852 0.315025
vt 0.522931 0.361055
vt 0.498990 0.360538
vt 0.479862 0.359258
vt 0.480548 0.417686
vt 0.468119 0.417686
vt 0.468270 0.359635
vt 0.480517 0.292251
vt 0.466141 0.292331
vt 0.449248 0.361437
vt 0.449445 0.417686
vt 0.498022 0.417686
vt 0.443779 0.313714
vt 0.522062 0.417686
vt 0.503134 0.522089
vt 0.498990 0.474834
vt 0.522931 0.474318
vt 0.525852 0.520347
vt 0.479862 0.476114
vt 0.468270 0.475738
vt 0.480517 0.543121
vt 0.466141 0.543041
vt 0.449248 0.473935
vt 0.443779 0.521658
vt 0.503134 0.580278
vt 0.525852 0.582020
vt 0.522931 0.628049
vt 0.498990 0.627533
vt 0.479862 0.626253
vt 0.480548 0.684681
vt 0.468119 0.684681
vt 0.468270 0.626629
vt 0.480517 0.559246
vt 0.466141 0.559326
vt 0.449248 0.628432
vt 0.449445 0.684681
vt 0.498022 0.684681
vt 0.443779 0.580709
vt 0.522062 0.684681
vt 0.503134 0.789083
vt 0.498990 0.741829
vt 0.522931 0.741313
vt 0.525852 0.787342
vt 0.479862 0.743109
vt 0.468270 0.742732
vt 0.480517 0.810116
vt 0.466141 0.810036
vt 0.449248 0.740930
vt 0.443779 0.788653
vt 0.503134 0.038906
vt 0.525852 0.040648
vt 0.522931 0.086677
vt 0.498990 0.086160
vt 0.479862 0.084881
vt 0.480548 0.143309
vt 0.468119 0.143309
vt 0.468270 0.085257
vt 0.480517 0.017874
vt 0.466141 0.017953
vt 0.449248 0.087059
vt 0.449445 0.143309
vt 0.498022 0.143309
vt 0.443779 0.039337
vt 0.522062 0.143309
vt 0.503134 0.247711
vt 0.498990 0.200457
vt 0.522931 0.199940
vt 0.525852 0.245970
vt 0.479862 0.201736
vt 0.468270 0.201360
vt 0.480517 0.268744
vt 0.466141 0.268664
vt 0.449248 0.199558
vt 0.443779 0.247281
vn -1.0000 0.0000 0.0000
vn 0.0000 1.0000 0.0000
vn 1.0000 0.0000 0.0000
vn 0.0000 -1.0000 0.0000
vn 0.0000 0.0000 1.0000
vn -0.7359 0.6770 0.0000
vn -0.4741 0.8805 0.0000
vn 0.3969 -0.7301 0.5563
vn 0.0000 -0.8193 0.5733
vn -0.0000 -0.8193 -0.5733
vn 0.3969 -0.7301 -0.5563
vn 0.6653 -0.6222 0.4127
vn 0.6653 -0.6222 -0.4127
vn 0.1180 -0.2286 -0.9663
vn -0.0000 -0.2717 -0.9624
vn 0.1180 -0.2286 0.9663
vn 0.0000 -0.2717 0.9624
vn 0.1945 -0.1808 0.9641
vn 0.1945 -0.1808 -0.9641
vn 0.7359 0.6770 0.0000
vn 0.4741 0.8805 0.0000
vn -0.3969 -0.7301 0.5563
vn -0.3969 -0.7301 -0.5563
vn -0.6653 -0.6222 0.4127
vn -0.6653 -0.6222 -0.4127
vn -0.1180 -0.2286 -0.9663
vn -0.1180 -0.2286 0.9663
vn -0.1945 -0.1808 0.9641
vn -0.1945 -0.1808 -0.9641
usemtl Drawer
s off
f 61/1/1 62/2/1 64/3/1 63/4/1
f 63/4/2 64/3/2 68/5/2 67/6/2
f 67/6/3 68/5/3 66/7/3 65/8/3
f 65/9/4 66/10/4 62/11/4 61/12/4
f 68/13/5 64/14/5 62/15/5 66/16/5
s 1
f 2/17/6 4/18/6 3/19/7 1/20/7
f 5/21/8 16/22/9 19/23/10 7/24/11
f 6/25/12 5/21/8 7/24/11 8/26/13
f 3/27/14 7/24/11 19/23/10 12/28/15
f 1/20/16 9/29/17 16/22/9 5/21/8
f 2/17/18 1/20/16 5/21/8 6/25/12
f 3/27/14 4/30/19 8/26/13 7/24/11
f 1/20/7 3/19/7 12/31/2 9/29/2
f 11/32/20 10/33/21 13/34/21 14/35/20
f 15/36/22 18/37/23 19/23/10 16/22/9
f 17/38/24 20/39/25 18/37/23 15/36/22
f 13/40/26 12/28/15 19/23/10 18/37/23
f 10/33/27 15/36/22 16/22/9 9/29/17
f 11/32/28 17/38/24 15/36/22 10/33/27
f 13/40/26 18/37/23 20/39/25 14/41/29
f 10/33/21 9/29/2 12/31/2 13/34/21
f 22/42/6 24/43/6 23/44/7 21/45/7
f 25/46/8 36/47/9 39/48/10 27/49/11
f 26/50/12 25/46/8 27/49/11 28/51/13
f 23/52/14 27/49/11 39/48/10 32/53/15
f 21/45/16 29/54/17 36/47/9 25/46/8
f 22/42/18 21/45/16 25/46/8 26/50/12
f 23/52/14 24/55/19 28/51/13 27/49/11
f 21/45/7 23/44/7 32/56/2 29/54/2
f 31/57/20 30/58/21 33/59/21 34/60/20
f 35/61/22 38/62/23 39/48/10 36/47/9
f 37/63/24 40/64/25 38/62/23 35/61/22
f 33/65/26 32/53/15 39/48/10 38/62/23
f 30/58/27 35/61/22 36/47/9 29/54/17
f 31/57/28 37/63/24 35/61/22 30/58/27
f 33/65/26 38/62/23 40/64/25 34/66/29
f 30/58/21 29/54/2 32/56/2 33/59/21
f 42/67/6 44/68/6 43/69/7 41/70/7
f 45/71/8 56/72/9 59/73/10 47/74/11
f 46/75/12 45/71/8 47/74/11 48/76/13
f 43/77/14 47/74/11 59/73/10 52/78/15
f 41/70/16 49/79/17 56/72/9 45/71/8
f 42/67/18 41/70/16 45/71/8 46/75/12
f 43/77/14 44/80/19 48/76/13 47/74/11
f 41/70/7 43/69/7 52/81/2 49/79/2
f 51/82/20 50/83/21 53/84/21 54/85/20
f 55/86/22 58/87/23 59/73/10 56/72/9
f 57/88/24 60/89/25 58/87/23 55/86/22
f 53/90/26 52/78/15 59/73/10 58/87/23
f 50/83/27 55/86/22 56/72/9 49/79/17
f 51/82/28 57/88/24 55/86/22 50/83/27
f 53/90/26 58/87/23 60/89/25 54/91/29
f 50/83/21 49/79/2 52/81/2 53/84/21
