# Blender v2.83.0 OBJ File: 'CleanerBotE2.blend'
# www.blender.org
mtllib CleanerBotE_Wheel.mtl
o Wheel_Cylinder.002
v -0.000000 0.026091 0.000000
v -0.000000 -0.026091 0.000000
v -0.084245 0.026091 0.000000
v -0.084245 -0.026091 0.000000
v -0.068156 0.026091 -0.049518
v -0.068156 -0.026091 -0.049518
v -0.026033 0.026091 -0.080122
v -0.026033 -0.026091 -0.080122
v 0.026033 0.026091 -0.080122
v 0.026033 -0.026091 -0.080122
v 0.068155 0.026091 -0.049518
v 0.068155 -0.026091 -0.049518
v 0.084245 0.026091 0.000000
v 0.084245 -0.026091 0.000000
v 0.068155 0.026091 0.049518
v 0.068155 -0.026091 0.049518
v 0.026033 0.026091 0.080122
v 0.026033 -0.026091 0.080122
v -0.026033 0.026091 0.080122
v -0.026033 -0.026091 0.080122
v -0.068156 0.026091 0.049518
v -0.068156 -0.026091 0.049518
vt 0.155626 0.847741
vt 0.155626 0.926985
vt 0.202205 0.911852
vt 0.155993 0.847909
vt 0.080848 0.823494
vt 0.080848 0.872325
vt 0.247880 0.278642
vt 0.248205 0.288846
vt 0.263419 0.294515
vt 0.263309 0.274078
vt 0.109048 0.911851
vt 0.109551 0.911832
vt 0.242299 0.297585
vt 0.251384 0.311197
vt 0.080261 0.872229
vt 0.155993 0.926921
vt 0.232286 0.301311
vt 0.231768 0.317746
vt 0.080261 0.823253
vt 0.202435 0.911832
vt 0.221962 0.298576
vt 0.211963 0.311617
vt 0.109048 0.783631
vt 0.231137 0.872325
vt 0.215255 0.290456
vt 0.199575 0.295027
vt 0.155626 0.768497
vt 0.231137 0.823494
vt 0.214701 0.280149
vt 0.199575 0.274424
vt 0.202205 0.783631
vt 0.202435 0.783988
vt 0.220510 0.271721
vt 0.211926 0.258164
vt 0.230992 0.823253
vt 0.155993 0.768898
vt 0.230685 0.268717
vt 0.231192 0.252361
vt 0.230992 0.872229
vt 0.109551 0.783988
vt 0.241200 0.270938
vt 0.250783 0.257918
vn 0.0000 1.0000 -0.0000
vn -0.0000 -1.0000 0.0000
vn -1.0000 0.0000 0.0000
vn -0.8090 -0.0000 -0.5878
vn -0.3090 -0.0000 -0.9511
vn 0.3090 -0.0000 -0.9511
vn 0.8090 -0.0000 -0.5878
vn 1.0000 -0.0000 0.0000
vn 0.8090 0.0000 0.5878
vn 0.3090 0.0000 0.9511
vn -0.3090 0.0000 0.9511
vn -0.8090 0.0000 0.5878
usemtl CleanerBotE
s 1
f 1/1/1 5/2/1 3/3/1
f 2/4/2 4/5/2 6/6/2
f 3/7/3 5/8/4 6/9/4 4/10/3
f 1/1/1 7/11/1 5/2/1
f 2/4/2 6/6/2 8/12/2
f 5/8/4 7/13/5 8/14/5 6/9/4
f 1/1/1 9/15/1 7/11/1
f 2/4/2 8/12/2 10/16/2
f 7/13/5 9/17/6 10/18/6 8/14/5
f 1/1/1 11/19/1 9/15/1
f 2/4/2 10/16/2 12/20/2
f 9/17/6 11/21/7 12/22/7 10/18/6
f 1/1/1 13/23/1 11/19/1
f 2/4/2 12/20/2 14/24/2
f 11/21/7 13/25/8 14/26/8 12/22/7
f 1/1/1 15/27/1 13/23/1
f 2/4/2 14/24/2 16/28/2
f 13/25/8 15/29/9 16/30/9 14/26/8
f 1/1/1 17/31/1 15/27/1
f 2/4/2 16/28/2 18/32/2
f 15/29/9 17/33/10 18/34/10 16/30/9
f 1/1/1 19/35/1 17/31/1
f 2/4/2 18/32/2 20/36/2
f 17/33/10 19/37/11 20/38/11 18/34/10
f 1/1/1 21/39/1 19/35/1
f 2/4/2 20/36/2 22/40/2
f 19/37/11 21/41/12 22/42/12 20/38/11
f 1/1/1 3/3/1 21/39/1
f 2/4/2 22/40/2 4/5/2
f 21/41/12 3/7/3 4/10/3 22/42/12
