# Blender v2.80 (sub 75) OBJ File: 'col.blend'
# www.blender.org
mtllib BigCubicle_Col.mtl
o Cube
v -0.675000 -0.429986 0.000005
v -0.675000 -0.429986 1.556849
v 0.675000 -0.429986 0.000005
v 0.675000 -0.429986 1.556849
v 0.675000 0.425000 0.000005
v -0.675000 0.425000 1.556849
v -0.647570 -0.429986 0.000005
v -0.647570 -0.429986 1.556849
v 0.675000 0.425000 1.556849
v 0.647570 -0.429986 0.000005
v 0.647570 -0.429986 1.556849
v -0.675000 0.425000 0.000005
v -0.647570 0.391355 1.556849
v -0.647570 0.391355 0.000005
v 0.647570 0.391355 1.556849
v 0.647570 0.391355 0.000005
v -0.675000 -0.429986 0.735484
v 0.675000 0.425000 0.735484
v -0.647570 -0.429986 0.750000
v 0.647570 -0.429986 0.750000
v -0.675000 0.425000 0.735484
v 0.675000 -0.429986 0.735484
v -0.647570 -0.429986 0.720968
v 0.647570 -0.429986 0.720968
v -0.647570 0.391355 0.750000
v 0.647570 0.391355 0.750000
v -0.647570 0.391355 0.720968
v 0.647570 0.391355 0.720968
vt 0.500000 0.500000
vt 0.625000 0.500000
vt 0.625000 0.750000
vt 0.500000 0.750000
vt 0.500000 0.875000
vt 0.625000 0.875000
vt 0.625000 1.000000
vt 0.500000 1.000000
vt 0.312500 0.625000
vt 0.375000 0.500000
vt 0.375000 0.750000
vt 0.312500 0.750000
vt 0.750000 0.625000
vt 0.875000 0.500000
vt 0.875000 0.750000
vt 0.750000 0.750000
vt 0.125000 0.500000
vt 0.250000 0.625000
vt 0.250000 0.750000
vt 0.125000 0.750000
vt 0.625000 0.812500
vt 0.500000 0.812500
vt 0.687500 0.625000
vt 0.687500 0.750000
vt 0.500000 0.250000
vt 0.625000 0.250000
vt 0.500000 0.000000
vt 0.625000 0.000000
vt 0.437500 0.812500
vt 0.437500 0.875000
vt 0.437500 1.000000
vt 0.437500 0.500000
vt 0.437500 0.750000
vt 0.375000 0.875000
vt 0.375000 1.000000
vt 0.375000 0.812500
vt 0.375000 0.250000
vt 0.437500 0.250000
vt 0.375000 0.000000
vt 0.437500 0.000000
vt 0.437500 0.875000
vt 0.437500 0.812500
vt 0.500000 0.812500
vt 0.500000 0.875000
vt 0.437500 0.875000
vt 0.437500 0.875000
vt 0.437500 0.812500
vt 0.437500 0.812500
vt 0.500000 0.812500
vt 0.500000 0.812500
vt 0.500000 0.875000
vt 0.500000 0.875000
vn 1.0000 0.0000 0.0000
vn 0.0000 -1.0000 0.0000
vn 0.0000 0.0000 -1.0000
vn 0.0000 0.0000 1.0000
vn 0.0000 1.0000 -0.0000
vn -1.0000 0.0000 0.0000
usemtl None
s off
f 18/1/1 9/2/1 4/3/1 22/4/1
f 19/5/2 8/6/2 2/7/2 17/8/2
f 16/9/3 5/10/3 3/11/3 10/12/3
f 13/13/4 6/14/4 2/15/4 8/16/4
f 12/17/3 14/18/3 7/19/3 1/20/3
f 22/4/2 4/3/2 11/21/2 20/22/2
f 9/2/4 15/23/4 11/24/4 4/3/4
f 21/25/5 6/26/5 9/2/5 18/1/5
f 12/17/3 5/10/3 16/9/3 14/18/3
f 9/2/4 6/14/4 13/13/4 15/23/4
f 17/27/6 2/28/6 6/26/6 21/25/6
f 22/4/2 20/22/2 24/29/2
f 24/29/2 20/22/2 19/5/2 23/30/2
f 23/30/2 19/5/2 17/31/2
f 5/10/1 18/32/1 22/33/1 3/11/1
f 7/34/2 23/30/2 17/31/2 1/35/2
f 3/11/2 22/33/2 24/29/2 10/36/2
f 12/37/5 21/38/5 18/32/5 5/10/5
f 1/39/6 17/40/6 21/38/6 12/37/6
f 24/29/3 23/30/3 27/41/3 28/42/3
f 19/5/4 20/22/4 26/43/4 25/44/4
f 14/18/2 16/9/2 28/42/2 27/41/2
f 27/41/1 23/30/1 7/45/1 14/46/1
f 24/29/6 28/42/6 16/47/6 10/48/6
f 26/43/6 20/22/6 11/49/6 15/50/6
f 19/5/1 25/44/1 13/51/1 8/52/1
f 25/44/2 26/43/2 15/50/2 13/51/2
