# Blender v2.83.0 OBJ File: 'CleanerBotA.blend'
# www.blender.org
mtllib CleanerBotA_WheelBack.mtl
o CleanerBotA_WheelBack
v 0.000000 -0.026444 -0.000000
v 0.000000 0.026444 -0.000000
v -0.087715 -0.026444 -0.000000
v -0.087715 0.026444 -0.000000
v -0.070963 -0.026444 -0.051558
v -0.070963 0.026444 -0.051558
v -0.027106 -0.026444 -0.083422
v -0.027106 0.026444 -0.083422
v 0.027105 -0.026444 -0.083422
v 0.027105 0.026444 -0.083422
v 0.070963 -0.026444 -0.051558
v 0.070963 0.026444 -0.051558
v 0.087715 -0.026444 -0.000000
v 0.087715 0.026444 -0.000000
v 0.070963 -0.026444 0.051558
v 0.070963 0.026444 0.051558
v 0.027105 -0.026444 0.083422
v 0.027105 0.026444 0.083422
v -0.027106 -0.026444 0.083422
v -0.027106 0.026444 0.083422
v -0.070963 -0.026444 0.051558
v -0.070963 0.026444 0.051558
vt 0.937550 0.013085
vt 0.935752 0.007572
vt 0.939336 0.007568
vt 0.250594 0.034906
vt 0.250594 0.007960
vt 0.266432 0.013106
vt 0.149508 0.941069
vt 0.149508 0.954917
vt 0.135315 0.954917
vt 0.135315 0.941069
vt 0.942238 0.009672
vt 0.234755 0.013106
vt 0.121121 0.954917
vt 0.121121 0.941069
vt 0.943349 0.013079
vt 0.224967 0.026579
vt 0.106928 0.954917
vt 0.106928 0.941069
vt 0.942245 0.016489
vt 0.224967 0.043233
vt 0.092734 0.954917
vt 0.092734 0.941069
vt 0.939348 0.018599
vt 0.234756 0.056705
vt 0.078540 0.954917
vt 0.078540 0.941069
vt 0.935764 0.018603
vt 0.250594 0.061851
vt 0.064347 0.954917
vt 0.064347 0.941070
vt 0.932862 0.016499
vt 0.266433 0.056705
vt 0.050153 0.954917
vt 0.050153 0.941070
vt 0.931751 0.013092
vt 0.276221 0.043232
vt 0.035960 0.954917
vt 0.035960 0.941069
vt 0.932855 0.009682
vt 0.276221 0.026579
vt 0.021766 0.954917
vt 0.021766 0.941069
vt 0.007573 0.954917
vt 0.007573 0.941069
vn 0.0000 -1.0000 0.0000
vn -0.7653 -0.6437 0.0000
vn -0.6191 -0.6437 -0.4498
vn 0.0000 1.0000 0.0000
vn -0.6191 0.6437 -0.4498
vn -0.7653 0.6437 0.0000
vn -0.2365 -0.6437 -0.7278
vn -0.2365 0.6437 -0.7278
vn 0.2365 -0.6437 -0.7278
vn 0.2365 0.6437 -0.7278
vn 0.6191 -0.6437 -0.4498
vn 0.6191 0.6437 -0.4498
vn 0.7653 -0.6437 -0.0000
vn 0.7653 0.6437 0.0000
vn 0.6191 -0.6437 0.4498
vn 0.6191 0.6437 0.4498
vn 0.2365 -0.6437 0.7278
vn 0.2365 0.6437 0.7278
vn -0.2365 -0.6437 0.7278
vn -0.2365 0.6437 0.7278
vn -0.6191 -0.6437 0.4498
vn -0.6191 0.6437 0.4498
usemtl CleanerBotA
s 1
f 1/1/1 3/2/2 5/3/3
f 2/4/4 6/5/5 4/6/6
f 3/7/2 4/8/6 6/9/5 5/10/3
f 1/1/1 5/3/3 7/11/7
f 2/4/4 8/12/8 6/5/5
f 5/10/3 6/9/5 8/13/8 7/14/7
f 1/1/1 7/11/7 9/15/9
f 2/4/4 10/16/10 8/12/8
f 7/14/7 8/13/8 10/17/10 9/18/9
f 1/1/1 9/15/9 11/19/11
f 2/4/4 12/20/12 10/16/10
f 9/18/9 10/17/10 12/21/12 11/22/11
f 1/1/1 11/19/11 13/23/13
f 2/4/4 14/24/14 12/20/12
f 11/22/11 12/21/12 14/25/14 13/26/13
f 1/1/1 13/23/13 15/27/15
f 2/4/4 16/28/16 14/24/14
f 13/26/13 14/25/14 16/29/16 15/30/15
f 1/1/1 15/27/15 17/31/17
f 2/4/4 18/32/18 16/28/16
f 15/30/15 16/29/16 18/33/18 17/34/17
f 1/1/1 17/31/17 19/35/19
f 2/4/4 20/36/20 18/32/18
f 17/34/17 18/33/18 20/37/20 19/38/19
f 1/1/1 19/35/19 21/39/21
f 2/4/4 22/40/22 20/36/20
f 19/38/19 20/37/20 22/41/22 21/42/21
f 1/1/1 21/39/21 3/2/2
f 2/4/4 4/6/6 22/40/22
f 21/42/21 22/41/22 4/43/6 3/44/2
