# Blender v2.80 (sub 74) OBJ File: 'texture.blend'
# www.blender.org
mtllib ElectronicsRecycling.mtl
o box_Cube.001
v 0.345744 -0.551925 0.001429
v 0.251891 -0.551925 1.010306
v 0.345744 -0.021924 0.001429
v 0.345744 -0.021924 1.063500
v 0.251891 -0.551925 0.867175
v 0.345744 -0.551925 0.813981
v 0.345744 -0.551925 1.063500
v 0.341990 -0.544249 0.013366
v 0.251891 -0.544249 1.010306
v 0.341990 -0.028534 0.013366
v 0.341990 -0.028534 1.051564
v 0.251891 -0.544249 0.867175
v 0.341990 -0.544249 0.813981
v 0.341990 -0.544249 1.051564
v -0.345514 -0.551925 0.001429
v -0.251661 -0.551925 1.010306
v -0.345514 -0.021924 0.001429
v -0.345514 -0.021924 1.063500
v -0.251661 -0.551925 0.867175
v -0.345514 -0.551925 0.813981
v -0.345514 -0.551925 1.063500
v -0.341760 -0.544249 0.013366
v -0.251661 -0.544249 1.010306
v -0.341760 -0.028534 0.013366
v -0.341760 -0.028534 1.051564
v -0.251661 -0.544249 0.867175
v -0.341760 -0.544249 0.813981
v -0.341760 -0.544249 1.051564
vt 0.990258 0.991955
vt 0.650092 0.991955
vt 0.650092 0.821872
vt 0.990258 0.821872
vt 0.996670 0.249222
vt 0.751393 0.249222
vt 0.751393 0.191597
vt 0.649728 0.649713
vt 0.989893 0.649713
vt 0.989893 0.819796
vt 0.649728 0.819796
vt 0.257038 0.192184
vt 0.257038 0.004532
vt 0.747592 0.004532
vt 0.747592 0.192184
vt 0.996670 0.003945
vt 0.751393 0.003945
vt 0.944037 0.639644
vt 0.990221 0.648163
vt 0.650057 0.648163
vt 0.696243 0.639644
vt 0.650057 0.608203
vt 0.990221 0.608205
vt 0.944037 0.616723
vt 0.696244 0.616722
vt 0.393755 0.730115
vt 0.393755 0.988597
vt 0.266617 0.988597
vt 0.266617 0.730115
vt 0.039571 0.759146
vt 0.229931 0.759146
vt 0.263992 0.765690
vt 0.005510 0.765690
vt 0.260878 0.768070
vt 0.133740 0.797299
vt 0.133740 0.768070
vt 0.006001 0.604201
vt 0.264482 0.604201
vt 0.264482 0.731924
vt 0.006001 0.731924
vt 0.006001 0.898087
vt 0.264482 0.898087
vt 0.264482 0.996582
vt 0.006001 0.996582
vt 0.260878 0.895793
vt 0.133740 0.895793
vt 0.395204 0.988597
vt 0.395204 0.730115
vt 0.522342 0.730115
vt 0.522342 0.988597
vt 0.229931 0.741538
vt 0.039571 0.741537
vt 0.005510 0.736462
vt 0.263991 0.736462
vt 0.990805 0.571330
vt 0.480415 0.571330
vt 0.480363 0.580238
vt 0.990753 0.580238
vt 0.480363 0.562387
vt 0.480430 0.571294
vt 0.990834 0.571295
vt 0.990768 0.562387
vt 0.542920 0.580273
vt 0.480363 0.580273
vt 0.480363 0.586996
vt 0.542920 0.586996
vt 0.006426 0.249633
vt 0.251703 0.192008
vt 0.251703 0.249633
vt 0.006426 0.004356
vt 0.251703 0.004356
vt 0.006113 0.767778
vt 0.133252 0.767778
vt 0.133252 0.797006
vt 0.006113 0.895501
vt 0.133252 0.895501
vt 0.480363 0.587031
vt 0.480363 0.593754
vt 0.542920 0.593754
vt 0.542920 0.587031
vn 0.0000 0.0000 1.0000
vn 1.0000 0.0000 0.0000
vn 0.0000 1.0000 0.0000
vn 0.0000 -1.0000 0.0000
vn 0.0000 0.0000 -1.0000
vn -1.0000 0.0000 0.0000
usemtl ElectronicsRecycling
s off
f 4/1/1 18/2/1 21/3/1 7/4/1
f 4/5/2 7/6/2 6/7/2
f 3/8/3 17/9/3 18/10/3 4/11/3
f 20/12/4 15/13/4 1/14/4 6/15/4
f 3/16/2 4/5/2 6/7/2 1/17/2
f 19/18/4 20/19/4 6/20/4 5/21/4
f 7/22/4 21/23/4 16/24/4 2/25/4
f 2/25/4 5/21/4 6/20/4 7/22/4
f 14/26/5 28/27/5 25/28/5 11/29/5
f 26/30/3 12/31/3 13/32/3 27/33/3
f 11/34/6 13/35/6 14/36/6
f 11/37/4 25/38/4 24/39/4 10/40/4
f 27/41/3 13/42/3 8/43/3 22/44/3
f 10/45/6 8/46/6 13/35/6 11/34/6
f 22/47/1 8/48/1 10/49/1 24/50/1
f 9/51/3 23/52/3 28/53/3 14/54/3
f 9/51/3 14/54/3 13/32/3 12/31/3
f 12/55/1 26/56/1 19/57/1 5/58/1
f 16/59/5 23/60/5 9/61/5 2/62/5
f 5/63/6 2/64/6 9/65/6 12/66/6
f 18/67/6 20/68/6 21/69/6
f 17/70/6 15/71/6 20/68/6 18/67/6
f 16/24/4 21/23/4 20/19/4 19/18/4
f 25/72/2 28/73/2 27/74/2
f 24/75/2 25/72/2 27/74/2 22/76/2
f 23/52/3 26/30/3 27/33/3 28/53/3
f 19/77/2 26/78/2 23/79/2 16/80/2
