# Blender v2.90.0 OBJ File: 'Escalator.blend'
# www.blender.org
mtllib EscalatorStart_Col.mtl
o EscalatorStart_Col
v 2.584283 0.765430 0.003194
v 2.584283 0.525855 0.003194
v 1.484101 0.765430 0.003194
v 1.484101 0.514535 0.013130
v 1.131840 0.514539 0.011628
v 2.584283 -0.734570 0.003194
v 2.584283 -0.494994 0.003194
v 2.584283 0.015430 0.003194
v 1.484101 -0.734570 0.003194
v 1.484101 0.015430 0.013130
v 1.484101 -0.483674 0.013130
v 1.131840 0.015430 0.011628
v 1.131840 -0.483678 0.011628
v 2.435516 0.765430 0.003194
v 2.435516 0.015430 0.013130
v 2.435516 0.524324 0.013130
v 2.435516 -0.734570 0.003194
v 2.435516 -0.493464 0.013130
v 1.484237 0.711085 0.174403
v 1.484237 0.500010 0.174403
v 1.484237 0.674245 0.212390
v 1.884931 0.674245 0.432715
v 1.484237 0.536849 0.212390
v 1.884931 0.536848 0.432715
v 1.484235 0.674245 0.908103
v 1.849338 0.674245 0.691343
v 1.484235 0.536843 0.908103
v 1.849338 0.536843 0.691343
v 1.484237 0.536839 0.135021
v 1.484237 0.674253 0.135021
v 1.832523 0.674245 0.305531
v 1.832523 0.536849 0.305531
v 1.447128 0.570362 0.135021
v 1.447128 0.640660 0.135021
v 1.484235 0.711085 -0.155344
v 1.484235 0.500009 -0.155344
v -0.089688 0.711085 -0.155344
v 0.144837 0.711085 0.250866
v 0.144837 0.500027 0.250866
v 0.438052 0.674245 0.963663
v 0.160396 0.536861 0.277814
v 0.438052 0.536843 0.963663
v 0.160396 0.674245 0.277814
v -1.587214 0.711085 1.250866
v -1.587214 0.500027 1.250866
v -1.205260 0.674245 1.912429
v -1.571655 0.536861 1.277814
v -1.205259 0.536843 1.912429
v -1.571655 0.674245 1.277814
v -0.089688 0.500000 -0.155344
v -1.821739 0.711085 0.844656
v -1.821739 0.500000 0.844656
v 1.484237 -0.711085 0.174403
v 1.484237 -0.500010 0.174403
v 1.484237 -0.674245 0.212390
v 1.884931 -0.674245 0.432715
v 1.484237 -0.536849 0.212390
v 1.884931 -0.536848 0.432715
v 1.484235 -0.674245 0.908103
v 1.849338 -0.674245 0.691343
v 1.484235 -0.536843 0.908103
v 1.849338 -0.536843 0.691343
v 1.484237 -0.536839 0.135021
v 1.484237 -0.674253 0.135021
v 1.832523 -0.674245 0.305531
v 1.832523 -0.536849 0.305531
v 1.447128 -0.570362 0.135021
v 1.447128 -0.640660 0.135021
v 1.484235 -0.711085 -0.155344
v 1.484235 -0.500009 -0.155344
v -0.089688 -0.711085 -0.155344
v 0.144837 -0.711085 0.250866
v 0.144837 -0.500027 0.250866
v 0.438052 -0.674245 0.963663
v 0.160396 -0.536861 0.277814
v 0.438052 -0.536843 0.963663
v 0.160396 -0.674245 0.277814
v -1.587214 -0.711085 1.250866
v -1.587214 -0.500027 1.250866
v -1.205260 -0.674245 1.912429
v -1.571655 -0.536861 1.277814
v -1.205259 -0.536843 1.912429
v -1.571655 -0.674245 1.277814
v -0.089688 -0.500000 -0.155344
v -1.821739 -0.711085 0.844656
v -1.821739 -0.500000 0.844656
v 0.291826 -0.500000 -0.284947
v 0.353632 -0.500000 0.015053
v -0.046368 -0.500000 0.015053
v 0.291826 0.500000 -0.284947
v 0.353632 0.500000 0.015053
v -0.046368 0.500000 0.015053
v 0.696840 -0.500000 -0.291806
v 0.758645 -0.500000 0.008194
v 0.358645 -0.500000 0.008194
v 0.696840 0.500000 -0.291806
v 0.758645 0.500000 0.008194
v 0.358645 0.500000 0.008194
v 1.104438 -0.500000 -0.291806
v 1.166244 -0.500000 0.008194
v 0.766244 -0.500000 0.008194
v 1.104438 0.500000 -0.291806
v 1.166244 0.500000 0.008194
v 0.766244 0.500000 0.008194
v -0.030903 -0.500000 -0.150000
v 0.030903 -0.500000 0.150000
v -0.369097 -0.500000 0.150000
v -0.030903 0.500000 -0.150000
v 0.030903 0.500000 0.150000
v -0.369097 0.500000 0.150000
v -0.379903 -0.500000 0.050000
v -0.318097 -0.500000 0.350000
v -0.718097 -0.500000 0.350000
v -0.379903 0.500000 0.050000
v -0.318097 0.500000 0.350000
v -0.718097 0.500000 0.350000
v -0.728903 -0.500000 0.250000
v -0.667098 -0.500000 0.550000
v -1.067097 -0.500000 0.550000
v -0.728903 0.500000 0.250000
v -0.667098 0.500000 0.550000
v -1.067097 0.500000 0.550000
v -1.077903 -0.500000 0.450000
v -1.016098 -0.500000 0.750000
v -1.416098 -0.500000 0.750000
v -1.077903 0.500000 0.450000
v -1.016098 0.500000 0.750000
v -1.416098 0.500000 0.750000
v -1.426903 -0.500000 0.650000
v -1.365098 -0.500000 0.950000
v -1.765098 -0.500000 0.950000
v -1.426903 0.500000 0.650000
v -1.365098 0.500000 0.950000
v -1.765098 0.500000 0.950000
vt 0.257029 0.754419
vt 0.255233 0.928936
vt 0.163683 0.928936
vt 0.163683 0.754419
vt 0.301255 0.754419
vt 0.301255 0.928936
vt 0.255234 0.993551
vt 0.163683 0.993551
vt 0.070337 0.754419
vt 0.072133 0.928936
vt 0.026111 0.928936
vt 0.026111 0.754419
vt 0.072132 0.993551
vt 0.070056 0.727130
vt 0.026111 0.727130
vt 0.163683 0.727130
vt 0.257310 0.727130
vt 0.301255 0.727130
vt 0.179373 0.612171
vt 0.309820 0.659621
vt 0.242902 0.721176
vt 0.195900 0.696734
vt 0.137987 0.063640
vt 0.070691 0.002513
vt 0.098581 0.003684
vt 0.152741 0.058273
vt 0.007833 0.111907
vt 0.219872 0.320635
vt 0.069818 0.315268
vt 0.324607 0.664897
vt 0.270784 0.719833
vt 0.023840 0.027244
vt 0.149335 0.720313
vt 0.002895 0.694469
vt 0.408335 0.420384
vt 0.502029 0.402597
vt 0.402566 0.704531
vt 0.336783 0.684184
vt 0.536788 0.287337
vt 0.465255 0.023496
vt 0.531045 0.003142
vt 0.630480 0.305127
vt 0.338338 0.019272
vt 0.432151 0.002894
vt 0.317132 0.002906
vt 0.390125 0.402143
vt 0.240107 0.408432
vt 0.174601 0.028964
vt 0.560634 0.705033
vt 0.467078 0.688707
vt 0.309820 0.659621
vt 0.390125 0.402143
vt 0.240107 0.408432
vt 0.179373 0.612171
vt 0.465255 0.023496
vt 0.536788 0.287337
vt 0.630480 0.305127
vt 0.531045 0.003142
vt 0.195900 0.696734
vt 0.242902 0.721176
vt 0.152741 0.058273
vt 0.098581 0.003684
vt 0.070691 0.002513
vt 0.137987 0.063640
vt 0.007833 0.111907
vt 0.069818 0.315268
vt 0.219872 0.320635
vt 0.270784 0.719833
vt 0.324607 0.664897
vt 0.023840 0.027244
vt 0.002895 0.694469
vt 0.149335 0.720313
vt 0.402566 0.704531
vt 0.502029 0.402597
vt 0.408335 0.420384
vt 0.336783 0.684184
vt 0.317132 0.002906
vt 0.174601 0.028964
vt 0.467078 0.688707
vt 0.560634 0.705033
vt 0.432151 0.002894
vt 0.338338 0.019272
vt 0.642339 0.768085
vt 0.642339 0.865074
vt 0.324071 0.865074
vt 0.324071 0.768085
vt 0.642339 0.975325
vt 0.324071 0.975325
vt 0.642339 0.768085
vt 0.642339 0.865074
vt 0.324071 0.865074
vt 0.324071 0.768085
vt 0.642339 0.975325
vt 0.324071 0.975325
vt 0.642339 0.768085
vt 0.642339 0.865074
vt 0.324071 0.865074
vt 0.324071 0.768085
vt 0.642339 0.975325
vt 0.324071 0.975325
vt 0.642339 0.768085
vt 0.642339 0.865074
vt 0.324071 0.865074
vt 0.324071 0.768085
vt 0.642339 0.975325
vt 0.324071 0.975325
vt 0.642339 0.768085
vt 0.642339 0.865074
vt 0.324071 0.865074
vt 0.324071 0.768085
vt 0.642339 0.975325
vt 0.324071 0.975325
vt 0.642339 0.768085
vt 0.642339 0.865074
vt 0.324071 0.865074
vt 0.324071 0.768085
vt 0.642339 0.975325
vt 0.324071 0.975325
vt 0.642339 0.768085
vt 0.642339 0.865074
vt 0.324071 0.865074
vt 0.324071 0.768085
vt 0.642339 0.975325
vt 0.324071 0.975325
vt 0.642339 0.768085
vt 0.642339 0.865074
vt 0.324071 0.865074
vt 0.324071 0.768085
vt 0.642339 0.975325
vt 0.324071 0.975325
vt 0.455144 0.026735
vt 0.527030 0.286095
vt 0.326592 0.680916
vt 0.398576 0.421627
vt 0.693388 0.606454
vt 0.805762 0.086272
vt 0.789310 0.062407
vt 0.674340 0.636724
vt 0.735760 0.470527
vt 0.814295 0.248874
vt 0.698899 0.440761
vt 0.619988 0.252472
vt 0.583581 0.703574
vt 0.714704 0.013976
vt 0.712934 0.005295
vt 0.581276 0.714946
vt 0.825384 0.140666
vt 0.712988 0.544221
vt 0.328856 0.020924
vt 0.712108 0.736656
vt 0.580506 0.004235
vt 0.457411 0.687028
vt 0.527030 0.286095
vt 0.398576 0.421627
vt 0.326592 0.680916
vt 0.735760 0.470527
vt 0.619988 0.252472
vt 0.698899 0.440761
vt 0.814295 0.248874
vt 0.674340 0.636724
vt 0.789310 0.062407
vt 0.805762 0.086272
vt 0.693388 0.606454
vt 0.712988 0.544221
vt 0.825384 0.140666
vt 0.583581 0.703574
vt 0.581276 0.714946
vt 0.712934 0.005295
vt 0.714704 0.013976
vt 0.328856 0.020924
vt 0.712108 0.736656
vt 0.580506 0.004235
vt 0.457411 0.687028
vt 0.455144 0.026735
vn 0.0000 0.0000 1.0000
vn -0.0002 0.0404 0.9992
vn -0.0043 -0.0000 1.0000
vn -0.0002 -0.0404 0.9992
vn 0.0333 -0.0207 0.9992
vn 0.0666 0.0000 0.9978
vn 0.0333 0.0207 0.9992
vn -0.0000 -1.0000 -0.0000
vn -0.0000 1.0000 0.0000
vn -0.0000 -1.0000 0.0001
vn -0.0000 1.0000 0.0001
vn 0.9794 0.0000 -0.2018
vn 1.0000 0.0000 -0.0000
vn 0.0109 -0.9788 0.2045
vn 0.1218 -0.8899 0.4396
vn 0.1111 -0.9339 0.3398
vn 0.4928 -0.7991 0.3444
vn 0.7514 0.6529 -0.0960
vn 0.7514 -0.6529 -0.0960
vn 0.5541 -0.6375 -0.5352
vn 0.5541 0.6375 -0.5352
vn 0.1836 -0.7635 0.6191
vn 0.2187 -0.6570 0.7214
vn 0.2187 0.6570 0.7214
vn 0.1836 0.7635 0.6191
vn 0.3713 0.4365 -0.8195
vn 0.3713 -0.4364 -0.8195
vn 0.4127 0.0000 -0.9109
vn 0.6529 -0.6212 0.4333
vn 0.6529 0.6212 0.4333
vn 0.2105 -0.9070 0.3647
vn 0.3535 -0.7071 0.6124
vn 0.3535 0.7071 0.6124
vn 0.1111 0.9339 0.3398
vn 0.2105 0.9070 0.3647
vn 0.1218 0.8899 0.4396
vn 0.4928 0.7991 0.3444
vn 0.0109 0.9788 0.2045
vn 0.3713 -0.4365 -0.8195
vn 0.3713 0.4364 -0.8195
usemtl None
s off
f 16/1/1 4/2/1 10/3/1 15/4/1
f 16/1/2 14/5/2 3/6/2 4/2/2
f 4/2/3 5/7/3 12/8/3 10/3/3
f 18/9/1 15/4/1 10/3/1 11/10/1
f 18/9/4 11/10/4 9/11/4 17/12/4
f 11/10/3 10/3/3 12/8/3 13/13/3
f 7/14/5 18/9/5 17/12/5 6/15/5
f 7/14/6 8/16/6 15/4/6 18/9/6
f 2/17/7 1/18/7 14/5/7 16/1/7
f 2/17/6 16/1/6 15/4/6 8/16/6
f 27/19/8 23/20/8 24/21/8 28/22/8
f 21/23/9 22/24/9 31/25/9 30/26/9
f 25/27/9 21/23/9 43/28/9 40/29/9
f 24/21/10 23/20/10 29/30/10 32/31/10
f 21/23/9 25/27/9 26/32/9 22/24/9
f 43/28/9 49/33/9 46/34/9 40/29/9
f 39/35/8 50/36/8 36/37/8 20/38/8
f 38/39/9 19/40/9 35/41/9 37/42/9
f 45/43/10 52/44/10 50/36/10 39/35/10
f 47/45/8 41/46/8 42/47/8 48/48/8
f 41/46/8 23/20/8 27/19/8 42/47/8
f 38/39/9 37/42/9 51/49/9 44/50/9
f 57/51/9 75/52/9 76/53/9 61/54/9
f 53/55/8 72/56/8 71/57/8 69/58/8
f 57/51/9 61/54/9 62/59/9 58/60/9
f 64/61/8 65/62/8 56/63/8 55/64/8
f 59/65/8 74/66/8 77/67/8 55/64/8
f 66/68/11 63/69/11 57/51/11 58/60/11
f 59/65/8 55/64/8 56/63/8 60/70/8
f 77/67/8 74/66/8 80/71/8 83/72/8
f 70/73/9 84/74/9 73/75/9 54/76/9
f 75/52/9 81/77/9 82/78/9 76/53/9
f 78/79/8 85/80/8 71/57/8 72/56/8
f 73/75/11 84/74/11 86/81/11 79/82/11
f 90/83/12 91/84/12 88/85/12 87/86/12
f 92/87/1 89/88/1 88/85/1 91/84/1
f 96/89/12 97/90/12 94/91/12 93/92/12
f 98/93/1 95/94/1 94/91/1 97/90/1
f 102/95/12 103/96/12 100/97/12 99/98/12
f 104/99/1 101/100/1 100/97/1 103/96/1
f 108/101/12 109/102/12 106/103/12 105/104/12
f 110/105/1 107/106/1 106/103/1 109/102/1
f 114/107/12 115/108/12 112/109/12 111/110/12
f 116/111/1 113/112/1 112/109/1 115/108/1
f 120/113/12 121/114/12 118/115/12 117/116/12
f 122/117/1 119/118/1 118/115/1 121/114/1
f 126/119/12 127/120/12 124/121/12 123/122/12
f 128/123/1 125/124/1 124/121/1 127/120/1
f 132/125/12 133/126/12 130/127/12 129/128/12
f 134/129/1 131/130/1 130/127/1 133/126/1
f 70/73/13 54/76/13 53/55/13 69/58/13
f 20/38/13 36/37/13 35/41/13 19/40/13
s 1
f 55/131/14 77/132/15 72/56/16 53/55/17
f 23/133/14 41/134/15 39/35/16 20/38/17
f 22/135/18 24/136/19 32/137/20 31/138/21
f 42/139/22 27/140/23 25/141/24 40/142/25
f 30/143/26 31/138/21 32/137/20 29/144/27 33/145/28 34/146/28
f 28/147/29 26/148/30 25/141/24 27/140/23
f 28/147/29 24/136/19 22/135/18 26/148/30
f 41/134/15 47/149/31 45/43/31 39/35/16
f 48/150/32 42/139/22 40/142/25 46/151/33
f 38/39/34 44/50/35 49/152/35 43/153/36
f 54/76/37 73/75/34 75/154/36 57/155/38
f 76/156/25 74/157/22 59/158/23 61/159/24
f 65/160/20 66/161/21 58/162/18 56/163/19
f 60/164/29 62/165/30 61/159/24 59/158/23
f 64/166/39 68/167/28 67/168/28 63/169/40 66/161/21 65/160/20
f 58/162/18 62/165/30 60/164/29 56/163/19
f 75/154/36 73/75/34 79/82/35 81/170/35
f 76/156/25 82/171/33 80/172/32 74/157/22
f 72/56/16 77/132/15 83/173/31 78/79/31
f 19/40/37 38/39/34 43/153/36 21/174/38
