# Blender v2.83.0 OBJ File: 'DigitalKiosk.blend'
# www.blender.org
mtllib DigitalKiosk.mtl
o DigitalKiosk
v 0.185394 -0.469035 0.500189
v 0.212651 -0.469035 0.702922
v 0.155830 -0.469035 0.504164
v 0.183087 -0.469035 0.706897
v 0.185394 -0.317457 0.500189
v 0.212651 -0.317457 0.702922
v 0.155830 -0.317457 0.504164
v 0.183087 -0.317457 0.706897
v 0.185394 -0.271984 0.500189
v 0.212651 -0.271984 0.702922
v 0.155830 -0.271984 0.504164
v 0.183087 -0.271984 0.706897
v 0.185394 -0.120405 0.500189
v 0.212651 -0.120405 0.702922
v 0.155830 -0.120405 0.504164
v 0.183087 -0.120405 0.706897
v 0.185394 -0.074932 0.500189
v 0.212651 -0.074932 0.702922
v 0.155830 -0.074932 0.504164
v 0.183087 -0.074932 0.706897
v 0.185394 0.076647 0.500189
v 0.212651 0.076647 0.702922
v 0.155830 0.076647 0.504164
v 0.183087 0.076647 0.706897
v 0.185394 0.122120 0.500189
v 0.212651 0.122120 0.702922
v 0.155830 0.122120 0.504164
v 0.183087 0.122120 0.706897
v 0.185394 0.273698 0.500189
v 0.212651 0.273698 0.702922
v 0.155830 0.273698 0.504164
v 0.183087 0.273698 0.706897
v 0.185394 0.319172 0.500189
v 0.212651 0.319172 0.702922
v 0.155830 0.319172 0.504164
v 0.183087 0.319172 0.706897
v 0.185394 0.470750 0.500189
v 0.212651 0.470750 0.702922
v 0.155830 0.470750 0.504164
v 0.183087 0.470750 0.706897
v 0.037683 0.547813 1.932199
v 0.135824 0.547813 0.000000
v 0.037683 -0.547813 1.932199
v 0.135824 -0.547813 0.000000
v 0.135824 -0.547813 0.966100
v 0.135824 0.547813 0.966100
v 0.007837 0.547813 1.929168
v 0.105824 0.547813 0.000000
v 0.007837 -0.547813 1.929168
v 0.105824 -0.547813 0.000000
v 0.105863 -0.547813 0.964583
v 0.105863 0.547813 0.964583
v -0.023400 0.547813 1.932200
v -0.121541 0.547813 0.000000
v -0.023400 -0.547813 1.932200
v -0.121541 -0.547813 0.000000
v -0.121541 -0.547813 0.966100
v -0.121541 0.547813 0.966100
v 0.006446 0.547813 1.929168
v -0.091541 0.547813 0.000000
v 0.006446 -0.547813 1.929168
v -0.091541 -0.547813 0.000000
v -0.091579 -0.547813 0.964583
v -0.091579 0.547813 0.964583
v 0.046987 0.473259 1.972643
v 0.046987 -0.473259 1.972643
v 0.159331 -0.473259 0.850194
v 0.159331 0.473259 0.850194
v 0.037037 0.473259 1.971648
v 0.037037 -0.473259 1.971648
v 0.149381 -0.473259 0.849198
v 0.149381 0.473259 0.849198
v 0.166413 -0.469035 0.621709
v 0.166413 -0.469035 0.826266
v 0.136583 -0.469035 0.621709
v 0.136583 -0.469035 0.826266
v 0.166413 -0.317457 0.621709
v 0.166413 -0.317457 0.826266
v 0.136583 -0.317457 0.621709
v 0.136583 -0.317457 0.826266
v 0.166413 -0.271984 0.621709
v 0.166413 -0.271984 0.826266
v 0.136583 -0.271984 0.621709
v 0.136583 -0.271984 0.826266
v 0.166413 -0.120405 0.621709
v 0.166413 -0.120405 0.826266
v 0.136583 -0.120405 0.621709
v 0.136583 -0.120405 0.826266
v 0.166413 -0.074932 0.621709
v 0.166413 -0.074932 0.826266
v 0.136583 -0.074932 0.621709
v 0.136583 -0.074932 0.826266
v 0.166413 0.076647 0.621709
v 0.166413 0.076647 0.826266
v 0.136583 0.076647 0.621709
v 0.136583 0.076647 0.826266
v 0.166413 0.122120 0.621709
v 0.166413 0.122120 0.826266
v 0.136583 0.122120 0.621709
v 0.136583 0.122120 0.826266
v 0.166413 0.273698 0.621709
v 0.166413 0.273698 0.826266
v 0.136583 0.273698 0.621709
v 0.136583 0.273698 0.826266
v 0.166413 0.319172 0.621709
v 0.166413 0.319172 0.826266
v 0.136583 0.319172 0.621709
v 0.136583 0.319172 0.826266
v 0.166413 0.470750 0.621709
v 0.166413 0.470750 0.826266
v 0.136583 0.470750 0.621709
v 0.136583 0.470750 0.826266
vt 0.450039 0.047651
vt 0.536649 0.047651
vt 0.536649 0.060281
vt 0.450039 0.060281
vt 0.687436 0.060281
vt 0.600827 0.060281
vt 0.600827 0.047651
vt 0.687436 0.047651
vt 0.988663 0.696897
vt 0.988663 0.996272
vt 0.766824 0.996272
vt 0.766824 0.696897
vt 0.751615 0.060281
vt 0.751615 0.047651
vt 0.450039 0.047651
vt 0.536649 0.047651
vt 0.536649 0.060281
vt 0.450039 0.060281
vt 0.687436 0.060281
vt 0.600827 0.060281
vt 0.600827 0.047651
vt 0.687436 0.047651
vt 0.988663 0.696897
vt 0.988663 0.996272
vt 0.766824 0.996272
vt 0.766824 0.696897
vt 0.751615 0.060281
vt 0.751615 0.047651
vt 0.450039 0.047651
vt 0.536649 0.047651
vt 0.536649 0.060281
vt 0.450039 0.060281
vt 0.687436 0.060281
vt 0.600827 0.060281
vt 0.600827 0.047651
vt 0.687436 0.047651
vt 0.988663 0.696897
vt 0.988663 0.996272
vt 0.766824 0.996272
vt 0.766824 0.696897
vt 0.751615 0.060281
vt 0.751615 0.047651
vt 0.450039 0.047651
vt 0.536649 0.047651
vt 0.536649 0.060281
vt 0.450039 0.060281
vt 0.687436 0.060281
vt 0.600827 0.060281
vt 0.600827 0.047651
vt 0.687436 0.047651
vt 0.988663 0.696897
vt 0.988663 0.996272
vt 0.766824 0.996272
vt 0.766824 0.696897
vt 0.751615 0.060281
vt 0.751615 0.047651
vt 0.450039 0.047651
vt 0.536649 0.047651
vt 0.536649 0.060281
vt 0.450039 0.060281
vt 0.687436 0.060281
vt 0.600827 0.060281
vt 0.600827 0.047651
vt 0.687436 0.047651
vt 0.988663 0.696897
vt 0.988663 0.996272
vt 0.766824 0.996272
vt 0.766824 0.696897
vt 0.751615 0.060281
vt 0.751615 0.047651
vt 0.908211 0.286130
vt 0.908211 0.396817
vt 0.783327 0.396817
vt 0.783327 0.286130
vt 0.908211 0.176010
vt 0.783327 0.176010
vt 0.929870 0.081328
vt 0.853605 0.081328
vt 0.853605 0.013838
vt 0.929870 0.013838
vt 0.929870 0.148472
vt 0.853605 0.148472
vt 0.969518 0.574062
vt 0.967602 0.469337
vt 0.970837 0.469278
vt 0.972747 0.573839
vt 0.963517 0.246463
vt 0.972147 0.142603
vt 0.975372 0.142871
vt 0.966752 0.246567
vt 0.965438 0.351182
vt 0.968673 0.351123
vt 0.981934 0.024818
vt 0.985160 0.025086
vt 0.981946 0.677541
vt 0.985160 0.677155
vt 0.916104 0.546068
vt 0.779330 0.546067
vt 0.779330 0.424843
vt 0.916104 0.424843
vt 0.916104 0.666671
vt 0.779330 0.666671
vt 0.841509 0.078811
vt 0.841509 0.146301
vt 0.765244 0.146301
vt 0.765244 0.078811
vt 0.841509 0.011668
vt 0.765244 0.011668
vt 0.947704 0.128284
vt 0.950932 0.128507
vt 0.949023 0.233067
vt 0.945787 0.233007
vt 0.941702 0.455894
vt 0.944936 0.455790
vt 0.953558 0.559491
vt 0.950332 0.559759
vt 0.946858 0.351225
vt 0.943622 0.351166
vt 0.963344 0.677276
vt 0.960119 0.677544
vt 0.960131 0.024818
vt 0.963344 0.025204
vt 0.746944 0.107875
vt 0.746944 0.985129
vt 0.010868 0.985129
vt 0.010868 0.107875
vt 0.413250 0.007150
vt 0.340656 0.007150
vt 0.340656 0.093667
vt 0.413250 0.093667
vt 0.994386 0.841261
vt 0.994485 0.631240
vt 0.998151 0.631218
vt 0.998052 0.841239
vt 0.994386 0.421222
vt 0.998051 0.421200
vt 0.994485 0.211201
vt 0.998151 0.211179
vt 0.994387 0.001183
vt 0.998053 0.001161
vt 0.450039 0.047651
vt 0.536649 0.047651
vt 0.536649 0.060281
vt 0.450039 0.060281
vt 0.687436 0.060281
vt 0.600827 0.060281
vt 0.600827 0.047651
vt 0.687436 0.047651
vt 0.988663 0.696897
vt 0.988663 0.996272
vt 0.766824 0.996272
vt 0.766824 0.696897
vt 0.751615 0.060281
vt 0.751615 0.047651
vt 0.450039 0.047651
vt 0.536649 0.047651
vt 0.536649 0.060281
vt 0.450039 0.060281
vt 0.687436 0.060281
vt 0.600827 0.060281
vt 0.600827 0.047651
vt 0.687436 0.047651
vt 0.988663 0.696897
vt 0.988663 0.996272
vt 0.766824 0.996272
vt 0.766824 0.696897
vt 0.751615 0.060281
vt 0.751615 0.047651
vt 0.450039 0.047651
vt 0.536649 0.047651
vt 0.536649 0.060281
vt 0.450039 0.060281
vt 0.687436 0.060281
vt 0.600827 0.060281
vt 0.600827 0.047651
vt 0.687436 0.047651
vt 0.988663 0.696897
vt 0.988663 0.996272
vt 0.766824 0.996272
vt 0.766824 0.696897
vt 0.751615 0.060281
vt 0.751615 0.047651
vt 0.450039 0.047651
vt 0.536649 0.047651
vt 0.536649 0.060281
vt 0.450039 0.060281
vt 0.687436 0.060281
vt 0.600827 0.060281
vt 0.600827 0.047651
vt 0.687436 0.047651
vt 0.988663 0.696897
vt 0.988663 0.996272
vt 0.766824 0.996272
vt 0.766824 0.696897
vt 0.751615 0.060281
vt 0.751615 0.047651
vt 0.450039 0.047651
vt 0.536649 0.047651
vt 0.536649 0.060281
vt 0.450039 0.060281
vt 0.687436 0.060281
vt 0.600827 0.060281
vt 0.600827 0.047651
vt 0.687436 0.047651
vt 0.988663 0.696897
vt 0.988663 0.996272
vt 0.766824 0.996272
vt 0.766824 0.696897
vt 0.751615 0.060281
vt 0.751615 0.047651
vn 0.0000 -1.0000 0.0000
vn 0.0000 1.0000 0.0000
vn 0.9911 0.0000 -0.1332
vn -0.1332 0.0000 -0.9911
vn 0.1332 0.0000 0.9911
vn 0.9949 0.0000 0.1011
vn 1.0000 0.0000 0.0000
vn -0.9949 0.0000 -0.1011
vn -1.0000 0.0000 0.0000
vn -0.1010 0.0000 0.9949
vn -0.0000 0.0000 -1.0000
vn -0.9949 0.0000 0.1011
vn 0.9949 0.0000 -0.1011
vn 0.1010 0.0000 0.9949
vn 0.9950 0.0000 0.0996
vn -0.9950 0.0000 -0.0996
vn -0.0996 0.0000 0.9950
vn 0.0996 0.0000 -0.9950
vn 0.0000 0.0000 1.0000
usemtl DigitalKiosk
s off
f 1/1/1 2/2/1 4/3/1 3/4/1
f 7/5/2 8/6/2 6/7/2 5/8/2
f 5/9/3 6/10/3 2/11/3 1/12/3
f 3/13/4 7/5/4 5/8/4 1/14/4
f 8/6/5 4/3/5 2/2/5 6/7/5
f 9/15/1 10/16/1 12/17/1 11/18/1
f 15/19/2 16/20/2 14/21/2 13/22/2
f 13/23/3 14/24/3 10/25/3 9/26/3
f 11/27/4 15/19/4 13/22/4 9/28/4
f 16/20/5 12/17/5 10/16/5 14/21/5
f 17/29/1 18/30/1 20/31/1 19/32/1
f 23/33/2 24/34/2 22/35/2 21/36/2
f 21/37/3 22/38/3 18/39/3 17/40/3
f 19/41/4 23/33/4 21/36/4 17/42/4
f 24/34/5 20/31/5 18/30/5 22/35/5
f 25/43/1 26/44/1 28/45/1 27/46/1
f 31/47/2 32/48/2 30/49/2 29/50/2
f 29/51/3 30/52/3 26/53/3 25/54/3
f 27/55/4 31/47/4 29/50/4 25/56/4
f 32/48/5 28/45/5 26/44/5 30/49/5
f 33/57/1 34/58/1 36/59/1 35/60/1
f 39/61/2 40/62/2 38/63/2 37/64/2
f 37/65/3 38/66/3 34/67/3 33/68/3
f 35/69/4 39/61/4 37/64/4 33/70/4
f 40/62/5 36/59/5 34/58/5 38/63/5
f 46/71/6 41/72/6 43/73/6 45/74/6
f 42/75/7 46/71/7 45/74/7 44/76/7
f 52/77/8 51/78/8 49/79/8 47/80/8
f 48/81/9 50/82/9 51/78/9 52/77/9
f 45/83/1 43/84/1 49/85/1 51/86/1
f 46/87/2 42/88/2 48/89/2 52/90/2
f 43/84/10 41/91/10 47/92/10 49/85/10
f 42/88/11 44/93/11 50/94/11 48/89/11
f 44/95/1 45/83/1 51/86/1 50/96/1
f 41/91/2 46/87/2 52/90/2 47/92/2
f 58/97/12 57/98/12 55/99/12 53/100/12
f 54/101/9 56/102/9 57/98/9 58/97/9
f 64/103/13 59/104/13 61/105/13 63/106/13
f 60/107/7 64/103/7 63/106/7 62/108/7
f 57/109/1 63/110/1 61/111/1 55/112/1
f 58/113/2 64/114/2 60/115/2 54/116/2
f 55/112/14 61/111/14 59/117/14 53/118/14
f 54/116/11 60/115/11 62/119/11 56/120/11
f 56/121/1 62/122/1 63/110/1 57/109/1
f 53/118/2 59/117/2 64/114/2 58/113/2
f 68/123/15 65/124/15 66/125/15 67/126/15
f 72/127/16 71/128/16 70/129/16 69/130/16
f 67/131/1 66/132/1 70/133/1 71/134/1
f 66/132/17 65/135/17 69/136/17 70/133/17
f 65/135/2 68/137/2 72/138/2 69/136/2
f 68/137/18 67/139/18 71/140/18 72/138/18
f 73/141/1 74/142/1 76/143/1 75/144/1
f 79/145/2 80/146/2 78/147/2 77/148/2
f 77/149/7 78/150/7 74/151/7 73/152/7
f 75/153/11 79/145/11 77/148/11 73/154/11
f 80/146/19 76/143/19 74/142/19 78/147/19
f 81/155/1 82/156/1 84/157/1 83/158/1
f 87/159/2 88/160/2 86/161/2 85/162/2
f 85/163/7 86/164/7 82/165/7 81/166/7
f 83/167/11 87/159/11 85/162/11 81/168/11
f 88/160/19 84/157/19 82/156/19 86/161/19
f 89/169/1 90/170/1 92/171/1 91/172/1
f 95/173/2 96/174/2 94/175/2 93/176/2
f 93/177/7 94/178/7 90/179/7 89/180/7
f 91/181/11 95/173/11 93/176/11 89/182/11
f 96/174/19 92/171/19 90/170/19 94/175/19
f 97/183/1 98/184/1 100/185/1 99/186/1
f 103/187/2 104/188/2 102/189/2 101/190/2
f 101/191/7 102/192/7 98/193/7 97/194/7
f 99/195/11 103/187/11 101/190/11 97/196/11
f 104/188/19 100/185/19 98/184/19 102/189/19
f 105/197/1 106/198/1 108/199/1 107/200/1
f 111/201/2 112/202/2 110/203/2 109/204/2
f 109/205/7 110/206/7 106/207/7 105/208/7
f 107/209/11 111/201/11 109/204/11 105/210/11
f 112/202/19 108/199/19 106/198/19 110/203/19
