# Blender v2.79 (sub 0) OBJ File: ''
# www.blender.org
mtllib keyboard.mtl
o computerKeyboard
v -0.593544 1.343873 0.000000
v 0.588376 1.343873 -0.000000
v 0.588376 -1.478127 -0.000000
v -0.593544 -1.478127 0.000000
v 0.588376 1.343873 0.275560
v 0.377693 1.343873 0.275560
v 0.377693 -1.478127 0.275560
v 0.588376 -1.478127 0.275560
v -0.427854 1.153028 0.106124
v -0.593544 1.343873 0.071273
v -0.593544 -1.478127 0.071273
v -0.427854 -0.625604 0.106124
v -0.427854 -0.831791 0.106124
v 0.212003 -0.625604 0.240709
v -0.427854 -1.287282 0.106124
v 0.212003 -1.287282 0.240709
v 0.212003 1.153028 0.240709
v 0.212003 -0.831791 0.240709
vt 0.000000 0.000000
vt 0.000000 4.653228
vt -11.110240 4.653228
vt -11.110240 0.000000
vt 0.000000 4.653228
vt 0.000000 3.823770
vt 11.110240 3.823770
vt 11.110240 4.653228
vt 0.751358 0.724354
vt 0.000000 3.965196
vt 0.000000 0.057757
vt 11.110240 0.057757
vt 7.753848 0.724354
vt 8.565606 0.724354
vt 7.753848 3.298600
vt 10.358880 0.724354
vt 10.358880 3.298600
vt 0.751358 3.298600
vt 11.110240 3.965196
vt 8.565606 3.298600
vt -11.110240 1.084882
vt -11.110240 0.000000
vt 0.000000 0.000000
vt 0.000000 1.084882
vt 11.110240 0.000000
vt 11.110240 0.280603
vt 0.000000 0.280603
vt 0.000000 0.280603
vt 0.000000 -0.000000
vt 4.653228 -0.000000
vt 3.823770 1.084882
vt 4.653228 1.084882
vt -3.823770 1.084882
vt -4.653228 0.000000
vt -4.653228 1.084882
vn -0.0000 0.0000 -1.0000
vn 0.0000 0.0000 1.0000
vn -0.2058 -0.0000 0.9786
vn 1.0000 0.0000 0.0000
vn -1.0000 0.0000 0.0000
vn 0.0000 -1.0000 0.0000
vn 0.0000 1.0000 -0.0000
usemtl metalDark
s 1
f 1/1/1 2/2/1 3/3/1
f 3/3/1 4/4/1 1/1/1
f 5/5/2 6/6/2 7/7/2
f 7/7/2 8/8/2 5/5/2
f 9/9/3 6/10/3 10/11/3
f 10/11/3 11/12/3 9/9/3
f 11/12/3 12/13/3 9/9/3
f 11/12/3 13/14/3 12/13/3
f 13/14/3 14/15/3 12/13/3
f 11/12/3 15/16/3 13/14/3
f 11/12/3 16/17/3 15/16/3
f 6/10/3 9/9/3 17/18/3
f 17/18/3 7/19/3 6/10/3
f 17/18/3 14/15/3 7/19/3
f 16/17/3 11/12/3 7/19/3
f 14/15/3 18/20/3 7/19/3
f 14/15/3 13/14/3 18/20/3
f 18/20/3 16/17/3 7/19/3
f 8/21/4 3/22/4 2/23/4
f 2/23/4 5/24/4 8/21/4
f 1/1/5 4/25/5 11/26/5
f 11/26/5 10/27/5 1/1/5
f 11/28/6 4/29/6 3/30/6
f 3/30/6 7/31/6 11/28/6
f 3/30/6 8/32/6 7/31/6
f 1/1/7 10/27/7 6/33/7
f 6/33/7 2/34/7 1/1/7
f 6/33/7 5/35/7 2/34/7
usemtl metalMedium
f 17/18/3 9/9/3 12/13/3
f 12/13/3 14/15/3 17/18/3
f 18/20/3 13/14/3 15/16/3
f 15/16/3 16/17/3 18/20/3
