# Blender v2.81 (sub 16) OBJ File: 'OfficeChairGrey.blend'
# www.blender.org
mtllib OfficeChairGrey_Col.mtl
o OfficeChairGrey_Col
v -0.355993 -0.245616 0.000000
v -0.271447 -0.148670 0.493383
v -0.355993 0.441658 0.000000
v -0.271447 0.380681 0.450824
v 0.355993 -0.245616 0.000000
v 0.271447 -0.148670 0.493383
v 0.355993 0.441658 0.000000
v 0.271447 0.380681 0.450824
v -0.271447 0.270160 0.493383
v 0.271447 0.270160 0.493383
v -0.219145 0.347039 1.097432
v -0.219145 0.412256 1.168820
v 0.219145 0.412256 1.168820
v 0.219145 0.347039 1.097432
vt 0.375000 0.205469
vt 0.625000 0.205469
vt 0.625000 0.250000
vt 0.375000 0.250000
vt 0.625000 0.500000
vt 0.375000 0.500000
vt 0.375000 0.544531
vt 0.625000 0.544531
vt 0.625000 0.750000
vt 0.375000 0.750000
vt 0.625000 1.000000
vt 0.375000 1.000000
vt 0.125000 0.544531
vt 0.125000 0.750000
vt 0.875000 0.544531
vt 0.875000 0.750000
vt 0.625000 0.500000
vt 0.625000 0.544531
vt 0.375000 0.000000
vt 0.625000 0.000000
vt 0.875000 0.500000
vt 0.875000 0.544531
vt 0.625000 0.205469
vt 0.625000 0.250000
vn -0.9783 0.0745 0.1935
vn 0.0000 0.9910 0.1340
vn 0.9856 0.0000 0.1689
vn 0.0000 -0.9812 0.1928
vn 0.0000 0.0000 -1.0000
vn 0.0000 0.0000 1.0000
vn 0.9967 -0.0131 0.0799
vn 0.9783 0.0745 0.1935
vn -0.9856 0.0000 0.1689
vn 0.0000 -0.7383 0.6745
vn -0.9967 -0.0131 0.0799
vn 0.0000 0.9990 -0.0439
vn 0.0000 -0.9920 0.1263
usemtl None
s off
f 3/1/1 9/2/1 4/3/1
f 3/4/2 4/3/2 8/5/2 7/6/2
f 7/7/3 10/8/3 6/9/3 5/10/3
f 5/10/4 6/9/4 2/11/4 1/12/4
f 3/13/5 7/7/5 5/10/5 1/14/5
f 10/8/6 9/15/6 2/16/6 6/9/6
f 10/8/7 8/5/7 13/17/7 14/18/7
f 7/6/8 8/5/8 10/8/8
f 1/19/9 2/20/9 9/2/9 3/1/9
f 13/17/10 12/21/10 11/22/10 14/18/10
f 4/3/11 9/2/11 11/23/11 12/24/11
f 8/5/12 4/3/12 12/24/12 13/17/12
f 9/15/13 10/8/13 14/18/13 11/22/13
