# Blender v2.81 (sub 16) OBJ File: 'OfficeChairBlue.blend'
# www.blender.org
mtllib OfficeChairBlue_Col.mtl
o OfficeChairBlue_Col
v -0.355943 -0.241255 0.000000
v -0.269424 -0.190242 0.550196
v -0.355943 0.441970 0.000000
v -0.269424 0.316531 0.550196
v 0.355943 -0.241255 0.000000
v 0.269424 -0.190242 0.550196
v 0.355943 0.441970 0.000000
v 0.269424 0.316531 0.550196
v -0.355943 0.352341 0.000000
v -0.269424 0.250050 0.550196
v 0.355943 0.352341 0.000000
v 0.269424 0.250050 0.550196
v -0.222370 0.298843 1.191005
v -0.222370 0.351464 1.191005
v 0.222370 0.351464 1.191005
v 0.222370 0.298843 1.191005
vt 0.375000 0.217204
vt 0.625000 0.217204
vt 0.625000 0.250000
vt 0.375000 0.250000
vt 0.625000 0.500000
vt 0.375000 0.500000
vt 0.375000 0.532796
vt 0.625000 0.532796
vt 0.625000 0.750000
vt 0.375000 0.750000
vt 0.625000 1.000000
vt 0.375000 1.000000
vt 0.125000 0.532796
vt 0.125000 0.750000
vt 0.875000 0.532796
vt 0.875000 0.750000
vt 0.625000 0.500000
vt 0.625000 0.532796
vt 0.125000 0.500000
vt 0.375000 0.000000
vt 0.625000 0.000000
vt 0.875000 0.500000
vt 0.875000 0.532796
vt 0.625000 0.217204
vt 0.625000 0.250000
vn -0.9879 0.0000 0.1553
vn 0.0000 0.9750 0.2223
vn 0.9879 0.0000 0.1553
vn 0.0000 -0.9957 0.0923
vn 0.0000 0.0000 -1.0000
vn 0.0000 0.0000 1.0000
vn 0.9973 0.0000 0.0732
vn -0.9973 0.0000 0.0732
vn 0.0000 0.9985 -0.0544
vn 0.0000 -0.9971 0.0759
usemtl None
s off
f 9/1/1 10/2/1 4/3/1 3/4/1
f 3/4/2 4/3/2 8/5/2 7/6/2
f 11/7/3 12/8/3 6/9/3 5/10/3
f 5/10/4 6/9/4 2/11/4 1/12/4
f 9/13/5 11/7/5 5/10/5 1/14/5
f 12/8/6 10/15/6 2/16/6 6/9/6
f 12/8/7 8/5/7 15/17/7 16/18/7
f 3/19/5 7/6/5 11/7/5 9/13/5
f 7/6/3 8/5/3 12/8/3 11/7/3
f 1/20/1 2/21/1 10/2/1 9/1/1
f 15/17/6 14/22/6 13/23/6 16/18/6
f 4/3/8 10/2/8 13/24/8 14/25/8
f 8/5/9 4/3/9 14/25/9 15/17/9
f 10/15/10 12/8/10 16/18/10 13/23/10
