<?xml version="1.0" encoding="UTF-8" standalone="no"?>
<!-- Created with Inkscape (http://www.inkscape.org/) -->

<svg
   xmlns:dc="http://purl.org/dc/elements/1.1/"
   xmlns:cc="http://creativecommons.org/ns#"
   xmlns:rdf="http://www.w3.org/1999/02/22-rdf-syntax-ns#"
   xmlns:svg="http://www.w3.org/2000/svg"
   xmlns="http://www.w3.org/2000/svg"
   xmlns:sodipodi="http://sodipodi.sourceforge.net/DTD/sodipodi-0.dtd"
   xmlns:inkscape="http://www.inkscape.org/namespaces/inkscape"
   width="210mm"
   height="297mm"
   viewBox="0 0 210 297"
   version="1.1"
   id="svg8"
   inkscape:export-filename="/home/grey/crisscross.png"
   inkscape:export-xdpi="96"
   inkscape:export-ydpi="96"
   inkscape:version="0.92.3 (2405546, 2018-03-11)"
   sodipodi:docname="battle_royale.svg">
  <defs
     id="defs2" />
  <sodipodi:namedview
     id="base"
     pagecolor="#ffffff"
     bordercolor="#666666"
     borderopacity="1.0"
     inkscape:pageopacity="0.0"
     inkscape:pageshadow="2"
     inkscape:zoom="1.979899"
     inkscape:cx="384.47369"
     inkscape:cy="697.2905"
     inkscape:document-units="mm"
     inkscape:current-layer="layer2"
     showgrid="false"
     inkscape:snap-object-midpoints="true"
     inkscape:snap-intersection-paths="true"
     inkscape:window-width="1731"
     inkscape:window-height="1411"
     inkscape:window-x="2015"
     inkscape:window-y="192"
     inkscape:window-maximized="0" />
  <metadata
     id="metadata5">
    <rdf:RDF>
      <cc:Work
         rdf:about="">
        <dc:format>image/svg+xml</dc:format>
        <dc:type
           rdf:resource="http://purl.org/dc/dcmitype/StillImage" />
        <dc:title></dc:title>
      </cc:Work>
    </rdf:RDF>
  </metadata>
  <g
     inkscape:groupmode="layer"
     id="layer2"
     inkscape:label="Roads">
    <path
       style="fill:none;stroke:#000000;stroke-width:0.26458332;stroke-linecap:butt;stroke-linejoin:miter;stroke-opacity:1;stroke-miterlimit:4;stroke-dasharray:1.05833327, 0.26458332000000001;stroke-dashoffset:0"
       d="M 57.396128,137.841 H 75.770903 L 95.528297,118.13074 113.04556,100.56633 132.83295,80.778954"
       id="path1473"
       inkscape:connector-curvature="0" />
    <path
       style="fill:none;stroke:#000000;stroke-width:0.26458332;stroke-linecap:butt;stroke-linejoin:miter;stroke-opacity:1;stroke-miterlimit:4;stroke-dasharray:1.05833327, 0.26458332000000001;stroke-dashoffset:0"
       d="m 132.83294,62.404182 v 18.37477"
       id="path1475"
       inkscape:connector-curvature="0" />
    <path
       style="fill:none;stroke:#000000;stroke-width:0.26458332;stroke-linecap:butt;stroke-linejoin:miter;stroke-opacity:1;stroke-miterlimit:4;stroke-dasharray:1.05833327, 0.26458332000000001;stroke-dashoffset:0"
       d="m 151.2077,80.77896 -18.37475,-8e-6"
       id="path1477"
       inkscape:connector-curvature="0" />
    <path
       style="fill:none;stroke:#000000;stroke-width:0.26458332;stroke-linecap:butt;stroke-linejoin:miter;stroke-opacity:1;stroke-miterlimit:4;stroke-dasharray:1.05833327,0.26458332;stroke-dashoffset:0"
       d="M 75.770903,156.21577 V 137.841"
       id="path1483"
       inkscape:connector-curvature="0" />
    <path
       style="fill:none;stroke:#000000;stroke-width:0.26458332;stroke-linecap:butt;stroke-linejoin:miter;stroke-opacity:1;stroke-miterlimit:4;stroke-dasharray:1.05833327,0.26458332;stroke-dashoffset:0"
       d="M 132.83294,156.21576 V 137.841 l 18.37478,-1e-5"
       id="path1485"
       inkscape:connector-curvature="0" />
    <path
       style="fill:none;stroke:#000000;stroke-width:0.26458332;stroke-linecap:butt;stroke-linejoin:miter;stroke-opacity:1;stroke-miterlimit:4;stroke-dasharray:1.05833327,0.26458332;stroke-dashoffset:0"
       d="M 132.83294,137.841 112.99884,118.0069 95.559545,100.56759 75.770905,80.778954"
       id="path1487"
       inkscape:connector-curvature="0" />
    <path
       style="fill:none;stroke:#000000;stroke-width:0.26458332;stroke-linecap:butt;stroke-linejoin:miter;stroke-opacity:1;stroke-miterlimit:4;stroke-dasharray:1.05833327,0.26458332;stroke-dashoffset:0"
       d="M 75.770903,62.404185 V 80.778952"
       id="path1508"
       inkscape:connector-curvature="0" />
    <path
       style="fill:none;stroke:#000000;stroke-width:0.26458332;stroke-linecap:butt;stroke-linejoin:miter;stroke-opacity:1;stroke-miterlimit:4;stroke-dasharray:1.05833327,0.26458332;stroke-dashoffset:0"
       d="M 57.396125,80.778952 H 75.770903"
       id="path1510"
       inkscape:connector-curvature="0" />
  </g>
  <g
     inkscape:label="Layer 1"
     inkscape:groupmode="layer"
     id="layer1">
    <path
       style="fill:none;stroke:#000000;stroke-width:0.26458332px;stroke-linecap:butt;stroke-linejoin:miter;stroke-opacity:1"
       d="m 47.239882,137.841 v -6.28084"
       id="path866"
       inkscape:connector-curvature="0" />
    <path
       style="fill:none;stroke:#000000;stroke-width:0.26458332px;stroke-linecap:butt;stroke-linejoin:miter;stroke-opacity:1"
       d="M 47.239882,131.56016 H 73.327381"
       id="path907"
       inkscape:connector-curvature="0"
       sodipodi:nodetypes="cc" />
    <path
       style="fill:none;stroke:#000000;stroke-width:0.26458332px;stroke-linecap:butt;stroke-linejoin:miter;stroke-opacity:1"
       d="m 73.274637,131.58268 22.253665,-22.25304 m 8.764448,-8.7642 22.25935,-22.258731"
       id="path924"
       inkscape:connector-curvature="0"
       sodipodi:nodetypes="cccc" />
    <path
       style="fill:none;stroke:#000000;stroke-width:0.26458332px;stroke-linecap:butt;stroke-linejoin:miter;stroke-opacity:1"
       d="M 47.239882,144.12184 V 137.841"
       id="path866-6"
       inkscape:connector-curvature="0" />
    <path
       style="fill:none;stroke:#000000;stroke-width:0.26458332px;stroke-linecap:butt;stroke-linejoin:miter;stroke-opacity:1"
       d="m 47.239882,144.12184 22.250181,0.034"
       id="path941"
       inkscape:connector-curvature="0"
       sodipodi:nodetypes="cc" />
    <path
       style="fill:none;stroke:#000000;stroke-width:0.26458332px;stroke-linecap:butt;stroke-linejoin:miter;stroke-opacity:1"
       d="m 75.770903,166.37202 h -6.28084"
       id="path866-6-2"
       inkscape:connector-curvature="0" />
    <path
       style="fill:none;stroke:#000000;stroke-width:0.26458332px;stroke-linecap:butt;stroke-linejoin:miter;stroke-opacity:1"
       d="M 69.490063,166.37202 V 144.15588"
       id="path958"
       inkscape:connector-curvature="0"
       sodipodi:nodetypes="cc" />
    <path
       style="fill:none;stroke:#000000;stroke-width:0.26458332px;stroke-linecap:butt;stroke-linejoin:miter;stroke-opacity:1"
       d="m 82.051743,166.37202 h -6.28084"
       id="path866-6-2-9"
       inkscape:connector-curvature="0" />
    <path
       style="fill:none;stroke:#000000;stroke-width:0.26458332px;stroke-linecap:butt;stroke-linejoin:miter;stroke-opacity:1"
       d="m 82.051741,166.37202 -0.03349,-25.99848"
       id="path1020"
       inkscape:connector-curvature="0"
       sodipodi:nodetypes="cc" />
    <path
       style="fill:none;stroke:#000000;stroke-width:0.26458332px;stroke-linecap:butt;stroke-linejoin:miter;stroke-opacity:1"
       d="m 82.018255,140.37354 22.217685,-22.24281 m 8.81485,-8.82482 22.221,-22.246119"
       id="path1022"
       inkscape:connector-curvature="0"
       sodipodi:nodetypes="cccc" />
    <path
       style="fill:none;stroke:#000000;stroke-width:0.26458332px;stroke-linecap:butt;stroke-linejoin:miter;stroke-opacity:1"
       d="M 161.36396,87.0598 V 80.77896"
       id="path866-6-9"
       inkscape:connector-curvature="0" />
    <path
       style="fill:none;stroke:#000000;stroke-width:0.26458332px;stroke-linecap:butt;stroke-linejoin:miter;stroke-opacity:1"
       d="m 135.27179,87.059791 26.09217,7e-6"
       id="path1045"
       inkscape:connector-curvature="0"
       sodipodi:nodetypes="cc" />
    <path
       style="fill:none;stroke:#000000;stroke-width:0.26458332px;stroke-linecap:butt;stroke-linejoin:miter;stroke-opacity:1"
       d="M 132.83294,52.247932 H 126.5521"
       id="path866-6-2-3-6"
       inkscape:connector-curvature="0" />
    <path
       style="fill:none;stroke:#000000;stroke-width:0.26458332px;stroke-linecap:butt;stroke-linejoin:miter;stroke-opacity:1"
       d="M 126.5521,78.306709 V 52.247932"
       id="path1077"
       inkscape:connector-curvature="0"
       sodipodi:nodetypes="cc" />
    <path
       style="fill:none;stroke:#000000;stroke-width:0.26458332px;stroke-linecap:butt;stroke-linejoin:miter;stroke-opacity:1"
       d="m 139.11378,52.247932 h -6.28084"
       id="path866-6-2-3-6-0"
       inkscape:connector-curvature="0" />
    <path
       style="fill:none;stroke:#000000;stroke-width:0.26458332px;stroke-linecap:butt;stroke-linejoin:miter;stroke-opacity:1"
       d="M 161.36396,80.77896 V 74.49812"
       id="path866-6-9-6"
       inkscape:connector-curvature="0" />
    <path
       style="fill:none;stroke:#000000;stroke-width:0.26458332px;stroke-linecap:butt;stroke-linejoin:miter;stroke-opacity:1"
       d="M 161.36396,74.49812 H 139.11378"
       id="path1109"
       inkscape:connector-curvature="0"
       sodipodi:nodetypes="cc" />
    <path
       style="fill:none;stroke:#000000;stroke-width:0.26458332px;stroke-linecap:butt;stroke-linejoin:miter;stroke-opacity:1"
       d="M 139.11378,52.247932 V 74.49812"
       id="path1111"
       inkscape:connector-curvature="0" />
    <path
       style="fill:none;stroke:#000000;stroke-width:0.26458332px;stroke-linecap:butt;stroke-linejoin:miter;stroke-opacity:1"
       d="m 132.83295,166.37201 h -6.28084"
       id="path866-2"
       inkscape:connector-curvature="0" />
    <path
       style="fill:none;stroke:#000000;stroke-width:0.26458332px;stroke-linecap:butt;stroke-linejoin:miter;stroke-opacity:1"
       d="M 126.55211,166.37201 V 140.28452"
       id="path907-6"
       inkscape:connector-curvature="0"
       sodipodi:nodetypes="cc" />
    <path
       style="fill:none;stroke:#000000;stroke-width:0.26458332px;stroke-linecap:butt;stroke-linejoin:miter;stroke-opacity:1"
       d="M 126.57463,140.33726 104.23594,118.13073 M 95.528302,109.32964 73.211608,87.012317"
       id="path924-1"
       inkscape:connector-curvature="0"
       sodipodi:nodetypes="cccc" />
    <path
       style="fill:none;stroke:#000000;stroke-width:0.26458332px;stroke-linecap:butt;stroke-linejoin:miter;stroke-opacity:1"
       d="m 139.11379,166.37201 h -6.28084"
       id="path866-6-8"
       inkscape:connector-curvature="0" />
    <path
       style="fill:none;stroke:#000000;stroke-width:0.26458332px;stroke-linecap:butt;stroke-linejoin:miter;stroke-opacity:1"
       d="m 139.11379,166.37201 0.034,-22.25018"
       id="path941-7"
       inkscape:connector-curvature="0"
       sodipodi:nodetypes="cc" />
    <path
       style="fill:none;stroke:#000000;stroke-width:0.26458332px;stroke-linecap:butt;stroke-linejoin:miter;stroke-opacity:1"
       d="m 161.36397,137.84099 v 6.28084"
       id="path866-6-2-92"
       inkscape:connector-curvature="0" />
    <path
       style="fill:none;stroke:#000000;stroke-width:0.26458332px;stroke-linecap:butt;stroke-linejoin:miter;stroke-opacity:1"
       d="M 161.36397,144.12183 H 139.14783"
       id="path958-0"
       inkscape:connector-curvature="0"
       sodipodi:nodetypes="cc" />
    <path
       style="fill:none;stroke:#000000;stroke-width:0.26458332px;stroke-linecap:butt;stroke-linejoin:miter;stroke-opacity:1"
       d="m 161.36397,131.56015 v 6.28084"
       id="path866-6-2-9-2"
       inkscape:connector-curvature="0" />
    <path
       style="fill:none;stroke:#000000;stroke-width:0.26458332px;stroke-linecap:butt;stroke-linejoin:miter;stroke-opacity:1"
       d="m 161.36397,131.56016 -25.99848,0.0335"
       id="path1020-3"
       inkscape:connector-curvature="0"
       sodipodi:nodetypes="cc" />
    <path
       style="fill:none;stroke:#000000;stroke-width:0.26458332px;stroke-linecap:butt;stroke-linejoin:miter;stroke-opacity:1"
       d="M 135.36549,131.59364 113.03631,109.28969 M 104.36156,100.62473 82.051736,78.340107"
       id="path1022-7"
       inkscape:connector-curvature="0"
       sodipodi:nodetypes="cccc" />
    <path
       style="fill:none;stroke:#000000;stroke-width:0.26458332px;stroke-linecap:butt;stroke-linejoin:miter;stroke-opacity:1"
       d="m 82.051746,52.247937 h -6.28084"
       id="path866-6-9-5"
       inkscape:connector-curvature="0" />
    <path
       style="fill:none;stroke:#000000;stroke-width:0.26458332px;stroke-linecap:butt;stroke-linejoin:miter;stroke-opacity:1"
       d="m 82.051736,78.340107 7e-6,-26.09217"
       id="path1045-9"
       inkscape:connector-curvature="0"
       sodipodi:nodetypes="cc" />
    <path
       style="fill:none;stroke:#000000;stroke-width:0.26458332px;stroke-linecap:butt;stroke-linejoin:miter;stroke-opacity:1"
       d="m 47.239877,80.778957 v 6.28084"
       id="path866-6-2-3-6-2"
       inkscape:connector-curvature="0" />
    <path
       style="fill:none;stroke:#000000;stroke-width:0.26458332px;stroke-linecap:butt;stroke-linejoin:miter;stroke-opacity:1"
       d="M 73.298654,87.059797 H 47.239877"
       id="path1077-2"
       inkscape:connector-curvature="0"
       sodipodi:nodetypes="cc" />
    <path
       style="fill:none;stroke:#000000;stroke-width:0.26458332px;stroke-linecap:butt;stroke-linejoin:miter;stroke-opacity:1"
       d="m 47.239877,74.498117 v 6.28084"
       id="path866-6-2-3-6-0-8"
       inkscape:connector-curvature="0" />
    <path
       style="fill:none;stroke:#000000;stroke-width:0.26458332px;stroke-linecap:butt;stroke-linejoin:miter;stroke-opacity:1"
       d="M 75.770906,52.247937 H 69.490065"
       id="path866-6-9-6-9"
       inkscape:connector-curvature="0" />
    <path
       style="fill:none;stroke:#000000;stroke-width:0.26458332px;stroke-linecap:butt;stroke-linejoin:miter;stroke-opacity:1"
       d="m 69.490065,52.247937 v 22.25018"
       id="path1109-7"
       inkscape:connector-curvature="0"
       sodipodi:nodetypes="cc" />
    <path
       style="fill:none;stroke:#000000;stroke-width:0.26458332px;stroke-linecap:butt;stroke-linejoin:miter;stroke-opacity:1"
       d="M 47.239877,74.498117 H 69.490065"
       id="path1111-3"
       inkscape:connector-curvature="0" />
    <path
       style="fill:#ff5cff;fill-opacity:1;stroke:#000000;stroke-width:0.26499999;stroke-miterlimit:4;stroke-dasharray:none;stroke-dashoffset:0;stroke-opacity:1"
       id="path1181"
       sodipodi:type="arc"
       sodipodi:cx="75.770905"
       sodipodi:cy="137.841"
       sodipodi:rx="0.86862594"
       sodipodi:ry="0.86862594"
       sodipodi:start="5.7571256"
       sodipodi:end="5.7571082"
       sodipodi:open="true"
       d="m 76.522086,137.40484 a 0.86862594,0.86862594 0 0 1 -0.315015,1.18734 0.86862594,0.86862594 0 0 1 -1.187344,-0.31501 0.86862594,0.86862594 0 0 1 0.315005,-1.18734 0.86862594,0.86862594 0 0 1 1.187346,0.315" />
    <path
       style="fill:#ff5cff;fill-opacity:1;stroke:#000000;stroke-width:0.26499999;stroke-miterlimit:4;stroke-dasharray:none;stroke-dashoffset:0;stroke-opacity:1"
       id="path1181-6"
       sodipodi:type="arc"
       sodipodi:cx="57.39613"
       sodipodi:cy="137.841"
       sodipodi:rx="0.86862594"
       sodipodi:ry="0.86862594"
       sodipodi:start="5.7571256"
       sodipodi:end="5.7571082"
       sodipodi:open="true"
       d="m 58.147311,137.40484 a 0.86862594,0.86862594 0 0 1 -0.315015,1.18734 0.86862594,0.86862594 0 0 1 -1.187344,-0.31501 0.86862594,0.86862594 0 0 1 0.315005,-1.18734 0.86862594,0.86862594 0 0 1 1.187346,0.315" />
    <path
       style="fill:#ff5cff;fill-opacity:1;stroke:#000000;stroke-width:0.26499999;stroke-miterlimit:4;stroke-dasharray:none;stroke-dashoffset:0;stroke-opacity:1"
       id="path1181-6-1"
       sodipodi:type="arc"
       sodipodi:cx="75.770905"
       sodipodi:cy="156.21577"
       sodipodi:rx="0.86862594"
       sodipodi:ry="0.86862594"
       sodipodi:start="5.7571256"
       sodipodi:end="5.7571082"
       sodipodi:open="true"
       d="m 76.522086,155.77961 a 0.86862594,0.86862594 0 0 1 -0.315015,1.18734 0.86862594,0.86862594 0 0 1 -1.187344,-0.31501 0.86862594,0.86862594 0 0 1 0.315005,-1.18734 0.86862594,0.86862594 0 0 1 1.187346,0.315" />
    <path
       style="fill:#ff5cff;fill-opacity:1;stroke:#000000;stroke-width:0.26499999;stroke-miterlimit:4;stroke-dasharray:none;stroke-dashoffset:0;stroke-opacity:1"
       id="path1181-9"
       sodipodi:type="arc"
       sodipodi:cx="95.528297"
       sodipodi:cy="118.13074"
       sodipodi:rx="0.86862594"
       sodipodi:ry="0.86862594"
       sodipodi:start="5.7571256"
       sodipodi:end="5.7571082"
       sodipodi:open="true"
       d="m 96.279478,117.69457 a 0.86862594,0.86862594 0 0 1 -0.315014,1.18735 0.86862594,0.86862594 0 0 1 -1.187344,-0.31501 0.86862594,0.86862594 0 0 1 0.315005,-1.18735 0.86862594,0.86862594 0 0 1 1.187346,0.315" />
    <path
       style="fill:#ff5cff;fill-opacity:1;stroke:#000000;stroke-width:0.26499999;stroke-miterlimit:4;stroke-dasharray:none;stroke-dashoffset:0;stroke-opacity:1"
       id="path1181-9-3"
       sodipodi:type="arc"
       sodipodi:cx="112.99884"
       sodipodi:cy="118.0069"
       sodipodi:rx="0.86862594"
       sodipodi:ry="0.86862594"
       sodipodi:start="5.7571256"
       sodipodi:end="5.7571082"
       sodipodi:open="true"
       d="m 113.75002,117.57073 a 0.86862594,0.86862594 0 0 1 -0.31501,1.18735 0.86862594,0.86862594 0 0 1 -1.18735,-0.31501 0.86862594,0.86862594 0 0 1 0.31501,-1.18735 0.86862594,0.86862594 0 0 1 1.18734,0.315" />
    <path
       style="fill:#ff5cff;fill-opacity:1;stroke:#000000;stroke-width:0.26499999;stroke-miterlimit:4;stroke-dasharray:none;stroke-dashoffset:0;stroke-opacity:1"
       id="path1181-9-3-1"
       sodipodi:type="arc"
       sodipodi:cx="113.04556"
       sodipodi:cy="100.56633"
       sodipodi:rx="0.86862594"
       sodipodi:ry="0.86862594"
       sodipodi:start="5.7571256"
       sodipodi:end="5.7571082"
       sodipodi:open="true"
       d="m 113.79674,100.13017 a 0.86862594,0.86862594 0 0 1 -0.31501,1.18734 0.86862594,0.86862594 0 0 1 -1.18734,-0.31501 0.86862594,0.86862594 0 0 1 0.315,-1.187345 0.86862594,0.86862594 0 0 1 1.18735,0.314995" />
    <path
       style="fill:#ff5cff;fill-opacity:1;stroke:#000000;stroke-width:0.26499999;stroke-miterlimit:4;stroke-dasharray:none;stroke-dashoffset:0;stroke-opacity:1"
       id="path1181-9-3-1-9"
       sodipodi:type="arc"
       sodipodi:cx="95.559547"
       sodipodi:cy="100.5676"
       sodipodi:rx="0.86862594"
       sodipodi:ry="0.86862594"
       sodipodi:start="5.7571256"
       sodipodi:end="5.7571082"
       sodipodi:open="true"
       d="m 96.310728,100.13143 a 0.86862594,0.86862594 0 0 1 -0.315014,1.18735 0.86862594,0.86862594 0 0 1 -1.187344,-0.31501 0.86862594,0.86862594 0 0 1 0.315005,-1.187349 0.86862594,0.86862594 0 0 1 1.187346,0.314999" />
    <path
       style="fill:#ff5cff;fill-opacity:1;stroke:#000000;stroke-width:0.26499999;stroke-miterlimit:4;stroke-dasharray:none;stroke-dashoffset:0;stroke-opacity:1"
       id="path1181-9-3-4"
       sodipodi:type="arc"
       sodipodi:cx="132.83295"
       sodipodi:cy="80.778954"
       sodipodi:rx="0.86862594"
       sodipodi:ry="0.86862594"
       sodipodi:start="5.7571256"
       sodipodi:end="5.7571082"
       sodipodi:open="true"
       d="m 133.58413,80.342791 a 0.86862594,0.86862594 0 0 1 -0.31502,1.187342 0.86862594,0.86862594 0 0 1 -1.18734,-0.31501 0.86862594,0.86862594 0 0 1 0.315,-1.187345 0.86862594,0.86862594 0 0 1 1.18735,0.315" />
    <path
       style="fill:#ff5cff;fill-opacity:1;stroke:#000000;stroke-width:0.26499999;stroke-miterlimit:4;stroke-dasharray:none;stroke-dashoffset:0;stroke-opacity:1"
       id="path1181-9-3-4-7"
       sodipodi:type="arc"
       sodipodi:cx="132.83295"
       sodipodi:cy="62.404182"
       sodipodi:rx="0.86862594"
       sodipodi:ry="0.86862594"
       sodipodi:start="5.7571256"
       sodipodi:end="5.7571082"
       sodipodi:open="true"
       d="m 133.58413,61.96802 a 0.86862594,0.86862594 0 0 1 -0.31502,1.187342 0.86862594,0.86862594 0 0 1 -1.18734,-0.31501 0.86862594,0.86862594 0 0 1 0.315,-1.187345 0.86862594,0.86862594 0 0 1 1.18735,0.314999" />
    <path
       style="fill:#ff5cff;fill-opacity:1;stroke:#000000;stroke-width:0.26499999;stroke-miterlimit:4;stroke-dasharray:none;stroke-dashoffset:0;stroke-opacity:1"
       id="path1181-9-3-4-7-8"
       sodipodi:type="arc"
       sodipodi:cx="75.770905"
       sodipodi:cy="62.404186"
       sodipodi:rx="0.86862594"
       sodipodi:ry="0.86862594"
       sodipodi:start="5.7571256"
       sodipodi:end="5.7571082"
       sodipodi:open="true"
       d="m 76.522086,61.968023 a 0.86862594,0.86862594 0 0 1 -0.315015,1.187342 0.86862594,0.86862594 0 0 1 -1.187344,-0.315009 0.86862594,0.86862594 0 0 1 0.315005,-1.187345 0.86862594,0.86862594 0 0 1 1.187346,0.314999" />
    <path
       style="fill:#ff5cff;fill-opacity:1;stroke:#000000;stroke-width:0.26499999;stroke-miterlimit:4;stroke-dasharray:none;stroke-dashoffset:0;stroke-opacity:1"
       id="path1181-6-1-5"
       sodipodi:type="arc"
       sodipodi:cx="132.83295"
       sodipodi:cy="156.21576"
       sodipodi:rx="0.86862594"
       sodipodi:ry="0.86862594"
       sodipodi:start="5.7571256"
       sodipodi:end="5.7571082"
       sodipodi:open="true"
       d="m 133.58413,155.7796 a 0.86862594,0.86862594 0 0 1 -0.31502,1.18734 0.86862594,0.86862594 0 0 1 -1.18734,-0.31501 0.86862594,0.86862594 0 0 1 0.315,-1.18735 0.86862594,0.86862594 0 0 1 1.18735,0.315" />
    <path
       style="fill:#ff5cff;fill-opacity:1;stroke:#000000;stroke-width:0.26499999;stroke-miterlimit:4;stroke-dasharray:none;stroke-dashoffset:0;stroke-opacity:1"
       id="path1181-6-1-5-0"
       sodipodi:type="arc"
       sodipodi:cx="151.20772"
       sodipodi:cy="137.84099"
       sodipodi:rx="0.86862594"
       sodipodi:ry="0.86862594"
       sodipodi:start="5.7571256"
       sodipodi:end="5.7571082"
       sodipodi:open="true"
       d="m 151.9589,137.40483 a 0.86862594,0.86862594 0 0 1 -0.31502,1.18734 0.86862594,0.86862594 0 0 1 -1.18734,-0.31501 0.86862594,0.86862594 0 0 1 0.31501,-1.18735 0.86862594,0.86862594 0 0 1 1.18734,0.315" />
    <path
       style="fill:#ff5cff;fill-opacity:1;stroke:#000000;stroke-width:0.26499999;stroke-miterlimit:4;stroke-dasharray:none;stroke-dashoffset:0;stroke-opacity:1"
       id="path1181-9-3-4-7-8-6"
       sodipodi:type="arc"
       sodipodi:cx="57.396126"
       sodipodi:cy="80.778954"
       sodipodi:rx="0.86862594"
       sodipodi:ry="0.86862594"
       sodipodi:start="5.7571256"
       sodipodi:end="5.7571082"
       sodipodi:open="true"
       d="m 58.147307,80.342791 a 0.86862594,0.86862594 0 0 1 -0.315015,1.187342 0.86862594,0.86862594 0 0 1 -1.187343,-0.31501 0.86862594,0.86862594 0 0 1 0.315004,-1.187345 0.86862594,0.86862594 0 0 1 1.187346,0.315" />
    <path
       style="fill:#ff5cff;fill-opacity:1;stroke:#000000;stroke-width:0.26499999;stroke-miterlimit:4;stroke-dasharray:none;stroke-dashoffset:0;stroke-opacity:1"
       id="path1181-9-3-4-0"
       sodipodi:type="arc"
       sodipodi:cx="151.2077"
       sodipodi:cy="80.778961"
       sodipodi:rx="0.86862594"
       sodipodi:ry="0.86862594"
       sodipodi:start="5.7571256"
       sodipodi:end="5.7571082"
       sodipodi:open="true"
       d="m 151.95888,80.342798 a 0.86862594,0.86862594 0 0 1 -0.31501,1.187342 0.86862594,0.86862594 0 0 1 -1.18734,-0.315009 0.86862594,0.86862594 0 0 1 0.315,-1.187345 0.86862594,0.86862594 0 0 1 1.18735,0.314999" />
    <path
       style="fill:#ff5cff;fill-opacity:1;stroke:#000000;stroke-width:0.26499999;stroke-miterlimit:4;stroke-dasharray:none;stroke-dashoffset:0;stroke-opacity:1"
       id="path1181-6-1-5-0-6"
       sodipodi:type="arc"
       sodipodi:cx="132.83295"
       sodipodi:cy="137.841"
       sodipodi:rx="0.86862594"
       sodipodi:ry="0.86862594"
       sodipodi:start="5.7571256"
       sodipodi:end="5.7571082"
       sodipodi:open="true"
       d="m 133.58413,137.40484 a 0.86862594,0.86862594 0 0 1 -0.31502,1.18734 0.86862594,0.86862594 0 0 1 -1.18734,-0.31501 0.86862594,0.86862594 0 0 1 0.315,-1.18734 0.86862594,0.86862594 0 0 1 1.18735,0.315" />
    <path
       style="fill:#ff5cff;fill-opacity:1;stroke:#000000;stroke-width:0.26499999;stroke-miterlimit:4;stroke-dasharray:none;stroke-dashoffset:0;stroke-opacity:1"
       id="path1181-9-3-4-3"
       sodipodi:type="arc"
       sodipodi:cx="75.770905"
       sodipodi:cy="80.778954"
       sodipodi:rx="0.86862594"
       sodipodi:ry="0.86862594"
       sodipodi:start="5.7571256"
       sodipodi:end="5.7571082"
       sodipodi:open="true"
       d="m 76.522086,80.342791 a 0.86862594,0.86862594 0 0 1 -0.315015,1.187342 0.86862594,0.86862594 0 0 1 -1.187344,-0.31501 0.86862594,0.86862594 0 0 1 0.315005,-1.187345 0.86862594,0.86862594 0 0 1 1.187346,0.315" />
  </g>
</svg>
