# Blender v2.80 (sub 75) OBJ File: 'texture.blend'
# www.blender.org
mtllib AdjTable.mtl
o table_Cylinder.001
v -0.676305 0.319746 0.800000
v -0.676305 0.315235 0.802432
v -0.643208 0.306037 0.800000
v -0.646398 0.302846 0.802432
v -0.629498 0.272939 0.800000
v -0.634010 0.272939 0.802432
v -0.643208 0.239841 0.800000
v -0.646398 0.243032 0.802432
v -0.676305 0.226132 0.800000
v -0.676305 0.230643 0.802432
v -0.709403 0.239841 0.800000
v -0.706213 0.243032 0.802432
v -0.723113 0.272939 0.800000
v -0.718601 0.272939 0.802432
v -0.709403 0.306037 0.800000
v -0.706213 0.302846 0.802432
v -0.676305 0.272939 0.802432
v 0.760192 0.148436 0.775000
v 0.760192 0.252642 0.775000
v 0.760192 0.148436 0.724234
v 0.760192 0.252642 0.724234
v 0.658403 0.230104 0.724234
v 0.658403 0.170973 0.724234
v 0.658403 0.230104 0.760904
v 0.658403 0.170973 0.760904
v 0.670587 -0.296880 0.006375
v 0.670587 -0.296880 0.020199
v 0.670587 0.400000 0.006375
v 0.670587 0.400000 0.020199
v 0.729416 -0.296880 0.006375
v 0.729416 -0.296880 0.020199
v 0.729416 0.400000 0.006375
v 0.729416 0.400000 0.020199
v 0.670587 0.171287 0.006375
v 0.670587 0.171287 0.045607
v 0.729416 0.171287 0.006375
v 0.729416 0.171287 0.045607
v 0.670587 0.229790 0.045607
v 0.729416 0.229790 0.006375
v 0.670587 0.229790 0.006375
v 0.729416 0.229790 0.045607
v 0.800000 -0.400000 0.800000
v 0.800000 0.400000 0.800000
v 0.800000 -0.400000 0.775000
v 0.800000 0.400000 0.775000
v 0.700001 0.242137 0.006375
v 0.700001 0.242137 0.724234
v 0.729416 0.229953 0.006375
v 0.729416 0.229953 0.724234
v 0.741600 0.200539 0.006375
v 0.741600 0.200539 0.724234
v 0.729416 0.171124 0.006375
v 0.729416 0.171124 0.724234
v 0.700001 0.158940 0.006375
v 0.700001 0.158940 0.724234
v 0.670587 0.171124 0.006375
v 0.670587 0.171124 0.724234
v 0.658403 0.200539 0.006375
v 0.658403 0.200539 0.724234
v 0.670587 0.229953 0.006375
v 0.670587 0.229953 0.724234
v -0.760192 0.148436 0.775000
v -0.760192 0.252642 0.775000
v -0.760192 0.148436 0.724234
v -0.760192 0.252642 0.724234
v -0.658403 0.230104 0.724234
v -0.658403 0.170973 0.724234
v -0.658403 0.230104 0.760904
v -0.658403 0.170973 0.760904
v -0.670587 -0.296880 0.006375
v -0.670587 -0.296880 0.020199
v -0.670587 0.400000 0.006375
v -0.670587 0.400000 0.020199
v -0.729416 -0.296880 0.006375
v -0.729416 -0.296880 0.020199
v -0.729416 0.400000 0.006375
v -0.729416 0.400000 0.020199
v -0.670587 0.171287 0.006375
v -0.670587 0.171287 0.045607
v -0.729416 0.171287 0.006375
v -0.729416 0.171287 0.045607
v -0.670587 0.229790 0.045607
v -0.729416 0.229790 0.006375
v -0.670587 0.229790 0.006375
v -0.729416 0.229790 0.045607
v -0.800000 -0.400000 0.800000
v -0.800000 0.400000 0.800000
v -0.800000 -0.400000 0.775000
v -0.800000 0.400000 0.775000
v -0.700001 0.242137 0.006375
v -0.700001 0.242137 0.724234
v -0.729416 0.229953 0.006375
v -0.729416 0.229953 0.724234
v -0.741600 0.200539 0.006375
v -0.741600 0.200539 0.724234
v -0.729416 0.171124 0.006375
v -0.729416 0.171124 0.724234
v -0.700001 0.158940 0.006375
v -0.700001 0.158940 0.724234
v -0.670587 0.171124 0.006375
v -0.670587 0.171124 0.724234
v -0.658403 0.200539 0.006375
v -0.658403 0.200539 0.724234
v -0.670587 0.229953 0.006375
v -0.670587 0.229953 0.724234
v 0.541742 -0.412219 0.728774
v 0.541742 -0.400025 0.775000
v 0.541742 -0.396821 0.724678
v 0.541742 -0.383604 0.775000
v 0.658403 -0.412219 0.728774
v 0.658403 -0.400025 0.775000
v 0.658403 -0.396821 0.724678
v 0.658403 -0.383604 0.775000
vt 0.193676 0.890095
vt 0.193676 0.766982
vt 0.342287 0.828539
vt 0.280730 0.977150
vt 0.280731 0.679928
vt 0.403844 0.977150
vt 0.490898 0.890095
vt 0.403844 0.679928
vt 0.490898 0.766982
vt 0.687803 0.006217
vt 0.687803 0.335146
vt 0.644874 0.335146
vt 0.644873 0.006217
vt 0.687803 0.335146
vt 0.687803 0.006217
vt 0.730732 0.006217
vt 0.730732 0.335146
vt 0.525810 0.028239
vt 0.525810 0.313124
vt 0.506752 0.335146
vt 0.506751 0.006217
vt 0.644873 0.006217
vt 0.644873 0.291102
vt 0.594871 0.291102
vt 0.594871 0.006217
vt 0.761742 0.291102
vt 0.761742 0.006217
vt 0.792751 0.006217
vt 0.792751 0.291102
vt 0.594870 0.006217
vt 0.575812 0.028239
vt 0.835680 0.028762
vt 0.792751 0.028762
vt 0.792751 0.006217
vt 0.835680 0.006217
vt 0.761742 0.291102
vt 0.730732 0.291102
vt 0.730732 0.006217
vt 0.761741 0.006217
vt 0.823760 0.051306
vt 0.823760 0.064099
vt 0.792751 0.064099
vt 0.792751 0.051306
vt 0.804349 0.574320
vt 0.773018 0.574320
vt 0.793309 0.454733
vt 0.804349 0.454733
vt 0.694706 0.664074
vt 0.663375 0.664074
vt 0.683666 0.335146
vt 0.694706 0.335146
vt 0.773018 0.574320
vt 0.784058 0.574320
vt 0.784058 0.615653
vt 0.773018 0.615653
vt 0.806139 0.574320
vt 0.817179 0.574320
vt 0.817179 0.615653
vt 0.806139 0.615653
vt 0.506752 0.335146
vt 0.553732 0.335146
vt 0.553732 0.662873
vt 0.506752 0.662873
vt 0.632044 0.664074
vt 0.621004 0.664074
vt 0.600713 0.335146
vt 0.632044 0.335146
vt 0.773018 0.335146
vt 0.784058 0.335146
vt 0.804349 0.454733
vt 0.773018 0.454733
vt 0.773018 0.455440
vt 0.726037 0.455440
vt 0.726037 0.335146
vt 0.773018 0.335146
vt 0.334923 0.335146
vt 0.334923 0.664074
vt 0.177823 0.664074
vt 0.177823 0.335146
vt 0.506752 0.664074
vt 0.501842 0.664074
vt 0.501842 0.499610
vt 0.506752 0.499610
vt 0.492023 0.664074
vt 0.492023 0.335146
vt 0.496933 0.335146
vt 0.496933 0.664074
vt 0.501842 0.335146
vt 0.501842 0.664074
vt 0.496933 0.664074
vt 0.496933 0.335146
vt 0.594871 0.335146
vt 0.575812 0.313124
vt 0.835680 0.028762
vt 0.835680 0.051306
vt 0.792751 0.051306
vt 0.792751 0.028762
vt 0.823760 0.076892
vt 0.792751 0.076892
vt 0.792751 0.064099
vt 0.823760 0.064099
vt 0.835680 0.335146
vt 0.835680 0.454733
vt 0.824640 0.454733
vt 0.804349 0.335146
vt 0.663375 0.335146
vt 0.663375 0.664074
vt 0.652335 0.664074
vt 0.632044 0.335146
vt 0.784058 0.615653
vt 0.784058 0.574320
vt 0.795099 0.574320
vt 0.795099 0.615653
vt 0.806139 0.574320
vt 0.806139 0.615653
vt 0.795099 0.615653
vt 0.795099 0.574320
vt 0.600713 0.335146
vt 0.600713 0.662873
vt 0.553732 0.662873
vt 0.553732 0.335146
vt 0.726037 0.335146
vt 0.726037 0.664074
vt 0.694706 0.664074
vt 0.714997 0.335146
vt 0.835680 0.454733
vt 0.835680 0.574320
vt 0.804349 0.574320
vt 0.824640 0.454733
vt 0.726037 0.575733
vt 0.726037 0.455440
vt 0.773018 0.455440
vt 0.773018 0.575733
vt 0.506752 0.335146
vt 0.506752 0.499610
vt 0.501842 0.499610
vt 0.501842 0.335146
vt 0.492023 0.664074
vt 0.334923 0.664074
vt 0.334923 0.335146
vt 0.492023 0.335146
vt 0.804154 0.957324
vt 0.804283 0.822530
vt 0.843948 0.810770
vt 0.843948 0.957465
vt 0.515020 0.664074
vt 0.644960 0.664074
vt 0.644960 0.993003
vt 0.515020 0.993003
vt 0.843948 0.664074
vt 0.843948 0.810770
vt 0.804283 0.799009
vt 0.804154 0.664215
vt 0.644960 0.664074
vt 0.764359 0.664074
vt 0.764360 0.993003
vt 0.644960 0.993003
vt 0.764360 0.993003
vt 0.764360 0.664074
vt 0.804154 0.664074
vt 0.804154 0.993003
vt 0.274164 0.664074
vt 0.177823 0.760415
vt 0.177823 0.896662
vt 0.274164 0.993003
vt 0.410410 0.993003
vt 0.506751 0.896662
vt 0.506752 0.760415
vt 0.410411 0.664074
vt 0.260055 0.335146
vt 0.260055 0.006217
vt 0.277086 0.006217
vt 0.277086 0.335146
vt 0.301171 0.006217
vt 0.301171 0.335146
vt 0.424519 0.006217
vt 0.424519 0.335146
vt 0.407488 0.335146
vt 0.407489 0.006217
vt 0.383403 0.335146
vt 0.383404 0.006217
vt 0.218939 0.335146
vt 0.218939 0.006217
vt 0.235970 0.006217
vt 0.235970 0.335146
vt 0.260055 0.006217
vt 0.260055 0.335146
vt 0.177823 0.335146
vt 0.177823 0.006217
vt 0.194854 0.006217
vt 0.194854 0.335146
vt 0.218939 0.006217
vt 0.218939 0.335146
vt 0.342287 0.335146
vt 0.318202 0.335146
vt 0.318202 0.006217
vt 0.342287 0.006217
vt 0.301171 0.335146
vt 0.301171 0.006217
vt 0.342287 0.006217
vt 0.366372 0.006217
vt 0.366372 0.335146
vt 0.342287 0.335146
vt 0.383403 0.006217
vt 0.383403 0.335146
vt 0.506751 0.335146
vt 0.482666 0.335146
vt 0.482666 0.006217
vt 0.506751 0.006217
vt 0.465635 0.335146
vt 0.465635 0.006217
vt 0.424519 0.006217
vt 0.448605 0.006217
vt 0.448605 0.335146
vt 0.424519 0.335146
vt 0.465635 0.006217
vt 0.465635 0.335146
vn 0.0000 0.0000 1.0000
vn 0.0000 1.0000 0.0000
vn 0.0000 -1.0000 0.0000
vn 0.0000 0.0000 -1.0000
vn 1.0000 0.0000 0.0000
vn -1.0000 0.0000 0.0000
vn 0.0000 -0.0542 0.9985
vn 0.0000 0.1476 0.9890
vn 0.0000 0.9672 -0.2540
vn 0.0000 -0.9669 0.2551
vn 0.0000 -0.2570 -0.9664
vn 0.0000 0.4745 0.8802
vn 0.0000 0.3003 0.9538
vn 0.2123 0.2123 0.9538
vn 0.3356 0.3356 0.8802
vn 0.3003 0.0000 0.9538
vn 0.4745 0.0000 0.8802
vn 0.2123 -0.2123 0.9538
vn 0.3356 -0.3356 0.8802
vn 0.0000 -0.3003 0.9538
vn 0.0000 -0.4745 0.8802
vn -0.2123 -0.2123 0.9538
vn -0.3356 -0.3356 0.8802
vn -0.3003 0.0000 0.9538
vn -0.4745 0.0000 0.8802
vn -0.2123 0.2123 0.9538
vn -0.3356 0.3356 0.8802
vn 0.7071 0.7071 0.0000
vn 0.7071 -0.7071 0.0000
vn -0.7071 -0.7071 0.0000
vn -0.7071 0.7071 0.0000
usemtl table
s off
f 6/1/1 4/2/1 17/3/1
f 8/4/1 6/1/1 17/3/1
f 4/2/1 2/5/1 17/3/1
f 10/6/1 8/4/1 17/3/1
f 12/7/1 10/6/1 17/3/1
f 2/5/1 16/8/1 17/3/1
f 14/9/1 12/7/1 17/3/1
f 16/8/1 14/9/1 17/3/1
f 21/10/2 65/11/2 63/12/2 19/13/2
f 64/14/3 20/15/3 18/16/3 62/17/3
f 22/18/4 66/19/4 65/20/4 21/21/4
f 25/22/4 69/23/4 68/24/4 24/25/4
f 24/26/3 68/27/3 66/28/3 22/29/3
f 22/18/4 21/21/4 20/30/4 23/31/4
f 21/32/5 19/33/5 18/34/5 20/35/5
f 67/36/2 69/37/2 25/38/2 23/39/2
f 22/40/6 23/41/6 25/42/6 24/43/6
f 40/44/6 38/45/6 29/46/6 28/47/6
f 36/48/5 37/49/5 31/50/5 30/51/5
f 28/52/2 29/53/2 33/54/2 32/55/2
f 30/56/3 31/57/3 27/58/3 26/59/3
f 37/60/7 35/61/7 27/62/7 31/63/7
f 26/64/6 27/65/6 35/66/6 34/67/6
f 32/68/5 33/69/5 41/70/5 39/71/5
f 33/72/8 29/73/8 38/74/8 41/75/8
f 44/76/4 88/77/4 89/78/4 45/79/4
f 45/80/5 43/81/5 42/82/5 44/83/5
f 88/84/3 44/85/3 42/86/3 86/87/3
f 45/88/2 89/89/2 87/90/2 43/91/2
f 20/30/4 64/92/4 67/93/4 23/31/4
f 66/19/4 67/93/4 64/92/4 65/20/4
f 65/94/6 64/95/6 62/96/6 63/97/6
f 66/98/5 68/99/5 69/100/5 67/101/5
f 84/102/5 72/103/5 73/104/5 82/105/5
f 80/106/6 74/107/6 75/108/6 81/109/6
f 72/110/2 76/111/2 77/112/2 73/113/2
f 74/114/3 70/115/3 71/116/3 75/117/3
f 81/118/7 75/119/7 71/120/7 79/121/7
f 70/122/5 78/123/5 79/124/5 71/125/5
f 76/126/6 83/127/6 85/128/6 77/129/6
f 77/130/8 85/131/8 82/132/8 73/133/8
f 89/134/6 88/135/6 86/136/6 87/137/6
f 87/138/1 86/139/1 42/140/1 43/141/1
f 106/142/6 107/143/6 109/144/6 108/145/6
f 108/146/9 109/147/9 113/148/9 112/149/9
f 112/150/5 113/151/5 111/152/5 110/153/5
f 110/154/10 111/155/10 107/156/10 106/157/10
f 108/158/11 112/159/11 110/160/11 106/161/11
s 1
f 1/162/12 2/5/13 4/2/14 3/163/15
f 3/163/15 4/2/14 6/1/16 5/164/17
f 5/164/17 6/1/16 8/4/18 7/165/19
f 7/165/19 8/4/18 10/6/20 9/166/21
f 9/166/21 10/6/20 12/7/22 11/167/23
f 11/167/23 12/7/22 14/9/24 13/168/25
f 13/168/25 14/9/24 16/8/26 15/169/27
f 15/169/27 16/8/26 2/5/13 1/162/12
f 46/170/2 47/171/2 49/172/28 48/173/28
f 48/173/28 49/172/28 51/174/5 50/175/5
f 50/176/5 51/177/5 53/178/29 52/179/29
f 52/179/29 53/178/29 55/180/3 54/181/3
f 54/182/3 55/183/3 57/184/30 56/185/30
f 56/185/30 57/184/30 59/186/6 58/187/6
f 58/188/6 59/189/6 61/190/31 60/191/31
f 60/191/31 61/190/31 47/192/2 46/193/2
f 90/194/2 92/195/31 93/196/31 91/197/2
f 92/195/31 94/198/6 95/199/6 93/196/31
f 94/200/6 96/201/30 97/202/30 95/203/6
f 96/201/30 98/204/3 99/205/3 97/202/30
f 98/206/3 100/207/29 101/208/29 99/209/3
f 100/207/29 102/210/5 103/211/5 101/208/29
f 102/212/5 104/213/28 105/214/28 103/215/5
f 104/213/28 90/216/2 91/217/2 105/214/28
